<?xml version="1.0" encoding="utf-8"?>
<!-- Generator: Adobe Illustrator 16.0.0, SVG Export Plug-In . SVG Version: 6.00 Build 0)  -->
<!DOCTYPE svg PUBLIC "-//W3C//DTD SVG 1.1//EN" "http://www.w3.org/Graphics/SVG/1.1/DTD/svg11.dtd">
<svg version="1.1" id="Layer_1" xmlns="http://www.w3.org/2000/svg" xmlns:xlink="http://www.w3.org/1999/xlink" x="0px" y="0px"
	 width="792px" height="612px" viewBox="0 0 792 612" enable-background="new 0 0 792 612" xml:space="preserve">
<g>
	<path fill="#EBBA36" d="M594.643,528.667c-1.214,2.092-2.401,3.907-3.529,5.396c-1.212,1.63-2.226,2.392-3.186,2.392l-0.341-0.029
		c-1.692-0.311-1.455-2.932-0.998-5.454c0.509-2.88,1.535-6.504,3.049-10.771c1.509-4.247,3.428-8.87,5.699-13.737
		c2.157-4.567,4.535-8.876,7.076-12.819c-0.396-0.052-0.81-0.049-1.238,0.018c-0.862,0.123-1.741,0.407-2.618,0.845
		c-0.88,0.439-1.664,1.009-2.396,1.74c-0.716,0.712-1.3,1.518-1.731,2.389c-0.946,2.09-1.876,4.21-2.8,6.355
		c-0.888,2.068-1.724,4.235-2.487,6.438l-0.953,2.764l-0.625-2.854c-0.417-1.921-1.365-3.169-2.898-3.817
		c-0.758-0.32-1.567-0.484-2.404-0.484c-0.885,0-1.831,0.186-2.812,0.546c-1.976,0.732-3.939,2.285-5.848,4.613
		c-1.923,2.354-3.329,5.646-4.185,9.777c-0.985,4.67-1.026,8.288-0.129,10.768c0.872,2.396,2.118,3.976,3.704,4.688
		c1.614,0.735,3.38,0.776,5.289,0.134c1.95-0.666,3.568-1.863,4.819-3.558l1.271-1.72l0.207,2.133
		c0.112,1.194,0.421,2.12,0.907,2.75c0.425,0.546,1.013,0.802,1.854,0.802c0.531,0,1.23-0.366,2.018-1.063
		c0.914-0.824,1.837-1.883,2.736-3.144c0.933-1.294,1.887-2.737,2.831-4.297c0.375-0.617,0.688-1.209,1.042-1.817
		c0.005-0.457,0.055-0.957,0.088-1.443C595.582,527.037,595.113,527.867,594.643,528.667z M585.327,524.286
		c-0.371,1.66-0.625,3.228-0.748,4.649c-0.394,1.669-1.042,3.045-1.96,4.222c-0.919,1.17-1.943,2.078-3.053,2.713
		c-1.093,0.615-2.184,0.926-3.242,0.926l-0.22-0.006c-1.245-0.03-2.311-0.676-3.065-1.86c-0.701-1.085-1.08-2.642-1.152-4.754
		c-0.071-2.043,0.307-4.614,1.15-7.862c1.12-4.203,2.527-7.261,4.18-9.097c1.743-1.931,3.374-2.891,4.988-2.927h0.114
		c1.636,0,2.931,0.847,3.854,2.523c0.873,1.604,1.052,3.654,0.537,6.093C586.146,520.887,585.686,522.681,585.327,524.286z"/>
	<path fill="#EBBA36" d="M595.626,529.887c-0.955,1.573-1.909,3.021-2.863,4.351c-0.952,1.33-1.909,2.418-2.86,3.275
		c-0.962,0.851-1.813,1.272-2.562,1.272c-1.094,0-1.922-0.37-2.506-1.121c-0.58-0.752-0.941-1.811-1.073-3.176
		c-1.364,1.847-3.106,3.12-5.219,3.843c-2.115,0.713-4.08,0.661-5.887-0.158c-1.808-0.813-3.188-2.533-4.146-5.159
		c-0.951-2.631-0.923-6.364,0.101-11.213c0.888-4.298,2.343-7.672,4.354-10.134c2.007-2.453,4.066-4.071,6.194-4.86
		c2.106-0.779,4.053-0.799,5.824-0.046c1.771,0.751,2.904,2.22,3.383,4.396c0.751-2.18,1.584-4.353,2.508-6.494
		c0.923-2.15,1.856-4.28,2.815-6.399c0.476-0.955,1.104-1.823,1.888-2.605c0.789-0.783,1.656-1.414,2.612-1.894
		c0.95-0.476,1.907-0.783,2.865-0.922c0.954-0.141,1.834-0.034,2.657,0.312c-2.797,4.227-5.335,8.782-7.632,13.65
		c-2.277,4.877-4.168,9.438-5.67,13.663c-1.504,4.235-2.512,7.78-3.018,10.646c-0.516,2.868-0.396,4.364,0.354,4.505
		c0.682,0.138,1.587-0.548,2.706-2.054c1.134-1.491,2.292-3.271,3.479-5.314c0.831-1.413,1.573-2.805,2.332-4.196
		c0.087-0.655,0.165-1.301,0.294-1.994c0.03-0.156,0.089-0.298,0.121-0.453c-0.03,0.06-0.059,0.107-0.091,0.17
		c-1.155,2.191-2.257,4.173-3.365,6.062c-1.185,2.038-2.335,3.796-3.429,5.235c-1.189,1.604-1.769,1.729-1.766,1.8
		c-0.058-0.106-0.335-0.788,0.176-3.615c0.492-2.79,1.496-6.328,2.979-10.511c1.49-4.199,3.388-8.771,5.641-13.59
		c2.294-4.864,4.843-9.421,7.569-13.548l0.548-0.832l-0.914-0.382c-0.959-0.402-1.998-0.527-3.089-0.366
		c-1.038,0.146-2.086,0.481-3.116,1.001c-1.023,0.512-1.979,1.196-2.827,2.042c-0.841,0.845-1.526,1.794-2.055,2.853
		c-0.966,2.126-1.897,4.262-2.82,6.414c-0.617,1.434-1.208,2.908-1.767,4.411c-0.692-1.263-1.713-2.181-3.05-2.747
		c-1.958-0.831-4.135-0.82-6.434,0.035c-2.249,0.832-4.453,2.553-6.542,5.11c-2.098,2.562-3.617,6.088-4.523,10.481
		c-1.05,4.969-1.07,8.889-0.068,11.663c1.031,2.829,2.571,4.722,4.575,5.626c1.068,0.483,2.204,0.731,3.372,0.731
		c1.004,0,2.053-0.185,3.119-0.543c1.719-0.587,3.215-1.522,4.468-2.791c0.218,0.725,0.521,1.34,0.914,1.85
		c0.737,0.953,1.802,1.438,3.152,1.438c0.97,0,1.985-0.485,3.109-1.484c1.01-0.909,2.014-2.057,2.979-3.406
		c0.902-1.252,1.823-2.65,2.732-4.142c-0.062-0.446-0.099-0.92-0.13-1.397C595.889,529.417,595.775,529.642,595.626,529.887z"/>
	<path fill="#EBBA36" d="M595.967,527.64c-0.354,0.609-0.667,1.201-1.042,1.818c-0.944,1.559-1.897,3.002-2.831,4.297
		c-0.898,1.26-1.822,2.317-2.735,3.144c-0.786,0.696-1.485,1.063-2.019,1.063c-0.841,0-1.429-0.256-1.853-0.802
		c-0.487-0.63-0.796-1.557-0.908-2.75l-0.207-2.133l-1.271,1.72c-1.251,1.692-2.87,2.891-4.819,3.557
		c-1.909,0.646-3.676,0.604-5.289-0.133c-1.586-0.714-2.832-2.293-3.704-4.688c-0.897-2.479-0.856-6.098,0.129-10.768
		c0.854-4.135,2.262-7.426,4.185-9.778c1.906-2.327,3.872-3.881,5.848-4.612c0.979-0.36,1.927-0.546,2.812-0.546
		c0.837,0,1.646,0.164,2.404,0.483c1.533,0.649,2.481,1.897,2.897,3.818l0.625,2.854l0.954-2.763
		c0.766-2.203,1.602-4.37,2.487-6.438c0.924-2.146,1.854-4.268,2.8-6.355c0.435-0.871,1.018-1.677,1.731-2.389
		c0.732-0.731,1.519-1.302,2.396-1.741c0.877-0.438,1.755-0.721,2.618-0.844c0.431-0.064,0.844-0.067,1.238-0.018
		c-2.541,3.942-4.919,8.251-7.076,12.818c-2.272,4.868-4.19,9.491-5.699,13.738c-1.514,4.27-2.54,7.894-3.049,10.771
		c-0.457,2.522-0.694,5.146,0.998,5.454l0.341,0.029c0.96,0,1.974-0.763,3.186-2.392c1.128-1.488,2.315-3.307,3.529-5.396
		c0.473-0.799,0.939-1.629,1.412-2.47c0.043-0.688,0.112-1.4,0.211-2.144c-0.759,1.394-1.501,2.783-2.332,4.195
		c-1.187,2.044-2.345,3.824-3.479,5.314c-1.119,1.506-2.024,2.19-2.706,2.055c-0.75-0.142-0.868-1.638-0.354-4.505
		c0.507-2.864,1.514-6.408,3.018-10.646c1.502-4.228,3.393-8.786,5.67-13.663c2.297-4.869,4.835-9.426,7.632-13.65
		c-0.823-0.348-1.703-0.452-2.657-0.312c-0.958,0.138-1.915,0.446-2.864,0.922c-0.957,0.479-1.824,1.107-2.613,1.894
		c-0.782,0.781-1.412,1.65-1.887,2.605c-0.959,2.119-1.896,4.249-2.816,6.399c-0.924,2.144-1.757,4.314-2.508,6.494
		c-0.479-2.18-1.609-3.646-3.382-4.396c-1.772-0.753-3.719-0.734-5.825,0.046c-2.128,0.789-4.188,2.406-6.194,4.86
		c-2.012,2.461-3.467,5.835-4.354,10.134c-1.021,4.848-1.051,8.581-0.101,11.213c0.955,2.626,2.339,4.345,4.146,5.159
		c1.807,0.819,3.771,0.87,5.887,0.158c2.11-0.724,3.854-1.996,5.219-3.844c0.133,1.366,0.493,2.425,1.073,3.177
		c0.584,0.751,1.412,1.121,2.506,1.121c0.747,0,1.601-0.425,2.562-1.272c0.952-0.858,1.909-1.946,2.86-3.276
		c0.954-1.326,1.908-2.775,2.863-4.35c0.149-0.245,0.264-0.472,0.407-0.71C596.003,528.673,595.962,528.181,595.967,527.64z"/>
	<path fill="#EBBA36" d="M586.173,512.812c-0.923-1.678-2.218-2.522-3.854-2.522h-0.114c-1.614,0.036-3.245,0.996-4.988,2.927
		c-1.651,1.836-3.06,4.894-4.18,9.096c-0.846,3.248-1.225,5.82-1.15,7.863c0.072,2.112,0.451,3.669,1.152,4.754
		c0.757,1.187,1.82,1.83,3.064,1.86l0.221,0.006c1.061,0,2.149-0.311,3.24-0.926c1.109-0.635,2.136-1.543,3.055-2.713
		c0.918-1.178,1.566-2.554,1.96-4.222c0.123-1.424,0.377-2.989,0.748-4.649c0.356-1.604,0.818-3.398,1.383-5.38
		C587.224,516.469,587.046,514.419,586.173,512.812z M585.905,518.737c-0.542,1.902-1.007,3.692-1.384,5.371
		c-0.37,1.67-0.631,3.256-0.763,4.757c-0.343,1.43-0.938,2.694-1.79,3.786c-0.854,1.088-1.792,1.926-2.812,2.506
		c-1.034,0.58-2.036,0.854-3.021,0.812c-0.989-0.026-1.792-0.521-2.401-1.479c-0.614-0.95-0.961-2.402-1.027-4.341
		c-0.066-1.953,0.307-4.487,1.125-7.631c1.091-4.091,2.425-7.006,3.996-8.75c1.562-1.736,3.031-2.628,4.394-2.657
		c0.033,0,0.062,0.01,0.1,0.01v-0.01v0.01c1.316,0.006,2.364,0.69,3.135,2.091C586.23,514.64,586.383,516.476,585.905,518.737z"/>
	<path fill="#EBBA36" d="M621.672,526.597c-2.365,2.646-4.81,4.844-7.258,6.53c-2.505,1.71-4.881,2.718-7.066,2.992
		c-2.396,0.324-4.23-0.54-5.275-2.465l-0.539-0.994l1.107-0.205c2.066-0.387,4.074-1.176,5.962-2.35
		c1.908-1.179,3.622-2.593,5.104-4.204c1.476-1.611,2.709-3.36,3.655-5.195c0.94-1.81,1.528-3.574,1.757-5.255
		c0.223-1.617,0.052-3.148-0.505-4.554c-0.543-1.347-1.549-2.357-3.078-3.088c-1.257-0.633-2.536-0.945-3.813-0.945
		c-0.498,0-1.003,0.046-1.504,0.139c-1.868,0.354-3.552,1.188-5.152,2.535c-1.62,1.354-3.057,3.151-4.264,5.345
		c-0.062,0.11-0.098,0.243-0.159,0.356c0.003-0.002,0.007-0.005,0.009-0.008c0.792-0.503,1.53-0.37,1.945,0.212
		c0.29,0.416,0.393,1.004,0.307,1.791c-0.085,0.68-0.312,1.386-0.696,2.16c-0.214,0.424-0.608,1.208-1.181,2.361
		c-0.584,1.177-1.275,2.483-2.062,3.965c-0.405,0.756-0.89,1.555-1.34,2.334c0.011,1.406,0.146,2.676,0.439,3.759
		c0.629,2.321,1.687,4.01,3.15,5.02c1.485,1.017,3.281,1.35,5.451,1.039c2.247-0.313,4.656-1.256,7.159-2.798
		c2.525-1.572,5.084-3.808,7.594-6.649c0.561-0.638,1.104-1.313,1.642-2.016c0.1-0.609,0.206-1.231,0.327-1.869
		C622.843,525.243,622.27,525.93,621.672,526.597z M601.266,530.794c-0.223-2.08,0.118-4.854,1.037-8.479
		c1.124-4.428,2.785-7.708,4.939-9.758c2.307-2.191,4.401-2.896,6.292-2.172c1.313,0.625,2.088,1.598,2.343,2.92
		c0.229,1.188,0.118,2.521-0.319,3.976c-0.424,1.371-1.084,2.854-1.97,4.411c-0.879,1.542-1.929,2.989-3.126,4.298
		c-1.204,1.305-2.521,2.478-3.913,3.485c-1.449,1.054-2.895,1.739-4.299,2.033l-0.887,0.188L601.266,530.794z"/>
	<path fill="#EBBA36" d="M600.739,518.662c0.294-0.603,0.47-1.134,0.526-1.617c0.01-0.066,0.015-0.131,0.018-0.188
		c-0.193,0.228-0.475,0.604-0.836,1.255c-0.52,0.901-1.271,2.288-2.239,4.125c-0.008,0.043-0.025,0.082-0.034,0.127
		c-0.118,0.645-0.191,1.242-0.271,1.85c0.608-1.157,1.176-2.231,1.649-3.187C600.125,519.867,600.525,519.076,600.739,518.662z"/>
	<path fill="#EBBA36" d="M601.023,521.758c0.571-1.152,0.968-1.938,1.182-2.361c0.387-0.774,0.611-1.48,0.695-2.159
		c0.087-0.788-0.016-1.375-0.306-1.792c-0.415-0.582-1.154-0.714-1.946-0.211c-0.002,0.002-0.006,0.005-0.008,0.007
		c-0.586,1.106-1.092,2.288-1.51,3.536c0.222-0.4,0.425-0.77,0.6-1.065c0.533-0.958,1.004-1.55,1.369-1.79
		c0.376-0.24,0.655-0.24,0.822,0c0.168,0.24,0.225,0.649,0.16,1.229c-0.072,0.583-0.281,1.21-0.614,1.888
		c-0.211,0.412-0.606,1.199-1.182,2.358c-0.58,1.166-1.268,2.472-2.052,3.941c-0.163,0.307-0.374,0.643-0.549,0.95
		c-0.041,0.611-0.069,1.21-0.064,1.771c0.45-0.779,0.935-1.577,1.34-2.334C599.748,524.242,600.439,522.935,601.023,521.758z"/>
	<path fill="#EBBA36" d="M600.287,521.394c0.572-1.158,0.971-1.945,1.182-2.357c0.333-0.678,0.542-1.305,0.614-1.888
		c0.063-0.577,0.008-0.986-0.16-1.229c-0.167-0.24-0.446-0.24-0.822,0c-0.365,0.24-0.836,0.832-1.369,1.79
		c-0.175,0.298-0.378,0.666-0.6,1.065c-0.369,1.106-0.688,2.256-0.924,3.461c0.97-1.837,1.722-3.224,2.239-4.125
		c0.361-0.649,0.643-1.026,0.836-1.256c-0.003,0.058-0.008,0.12-0.018,0.188c-0.059,0.483-0.232,1.017-0.526,1.617
		c-0.214,0.414-0.614,1.205-1.188,2.365c-0.476,0.952-1.041,2.027-1.65,3.187c-0.099,0.722-0.168,1.411-0.213,2.073
		c0.175-0.311,0.385-0.646,0.549-0.951C599.021,523.865,599.707,522.56,600.287,521.394z"/>
	<path fill="#EBBA36" d="M609.856,525.438c1.156-1.269,2.16-2.646,3.02-4.146c0.849-1.498,1.485-2.912,1.896-4.25
		c0.4-1.324,0.502-2.518,0.302-3.576c-0.206-1.06-0.814-1.827-1.837-2.307c-1.573-0.613-3.38,0.051-5.429,1.995
		c-2.041,1.944-3.616,5.064-4.712,9.364c-0.882,3.483-1.225,6.206-1.014,8.188c1.288-0.269,2.618-0.899,3.983-1.896
		C607.434,527.822,608.689,526.7,609.856,525.438z M602.845,529.639c-0.019-1.771,0.332-4.089,1.049-6.919
		c1.049-4.118,2.557-7.137,4.481-8.967c1.393-1.323,2.631-1.994,3.689-1.994c0.304,0,0.588,0.054,0.818,0.142
		c0.787,0.373,1.227,0.919,1.38,1.718c0.18,0.92,0.08,1.993-0.279,3.185c-0.389,1.255-1.001,2.63-1.824,4.081
		c-0.817,1.436-1.797,2.78-2.906,3.997c-1.146,1.239-2.344,2.31-3.669,3.27C604.65,528.825,603.734,529.327,602.845,529.639z"/>
	<path fill="#EBBA36" d="M600.078,514.485c1.265-2.287,2.751-4.148,4.453-5.573c1.708-1.438,3.547-2.336,5.531-2.713
		c1.969-0.373,3.92-0.089,5.822,0.871c1.709,0.814,2.873,1.991,3.488,3.525c0.607,1.535,0.8,3.188,0.558,4.967
		c-0.237,1.773-0.852,3.611-1.842,5.521c-0.988,1.911-2.247,3.697-3.782,5.376c-1.537,1.678-3.295,3.122-5.271,4.344
		c-1.98,1.229-4.06,2.049-6.242,2.46c0.887,1.639,2.367,2.318,4.452,2.042c2.081-0.267,4.312-1.227,6.702-2.854
		c2.389-1.646,4.763-3.771,7.108-6.402c0.99-1.104,1.878-2.253,2.706-3.434c0.18-0.802,0.415-1.653,0.633-2.49
		c-1.127,1.884-2.437,3.688-3.948,5.378c-2.278,2.547-4.621,4.656-6.961,6.268c-2.286,1.562-4.418,2.478-6.351,2.726
		c-1.246,0.168-2.224-0.058-2.931-0.708c1.821-0.478,3.586-1.242,5.263-2.279c2.033-1.261,3.864-2.771,5.449-4.493
		c1.573-1.719,2.89-3.586,3.899-5.553c1.025-1.971,1.678-3.922,1.929-5.785c0.26-1.9,0.055-3.713-0.607-5.386
		c-0.694-1.726-2.007-3.061-3.88-3.954c-2.048-1.029-4.2-1.354-6.347-0.947c-2.123,0.406-4.111,1.378-5.907,2.894
		c-1.774,1.481-3.338,3.438-4.644,5.811c-1.23,2.231-2.112,4.771-2.683,7.517c0.668-1.264,1.228-2.303,1.687-3.138
		C598.84,517.062,599.396,515.723,600.078,514.485z"/>
	<path fill="#EBBA36" d="M622.032,528.971c-2.591,2.934-5.19,5.197-7.774,6.804c-2.596,1.599-5.083,2.578-7.477,2.915
		c-2.392,0.34-4.394-0.053-6.032-1.177c-1.642-1.13-2.797-2.951-3.479-5.479c-0.22-0.798-0.338-1.701-0.408-2.648
		c-0.188,0.312-0.342,0.616-0.534,0.932c-0.055,0.091-0.108,0.17-0.165,0.261c0.086,0.58,0.173,1.155,0.312,1.675
		c0.733,2.703,2.016,4.702,3.81,5.938c1.394,0.952,3.04,1.438,4.893,1.438c0.553,0,1.123-0.041,1.719-0.127
		c2.472-0.351,5.093-1.364,7.797-3.031c2.661-1.65,5.335-3.987,7.95-6.944c0.041-0.48,0.082-0.969,0.145-1.479
		C622.533,528.352,622.29,528.679,622.032,528.971z"/>
	<path fill="#EBBA36" d="M596.055,526.196c-0.033,0.485-0.083,0.985-0.088,1.442c0.312-0.533,0.623-1.067,0.916-1.594
		c0.038-0.534,0.091-1.084,0.162-1.655C596.715,525.001,596.38,525.614,596.055,526.196z"/>
	<path fill="#EBBA36" d="M596.861,529.384c-0.039-0.493-0.074-0.991-0.072-1.524c-0.256,0.44-0.486,0.865-0.756,1.317
		c0.03,0.479,0.065,0.951,0.129,1.397c0.057-0.092,0.111-0.17,0.165-0.262C596.521,530.001,596.674,529.696,596.861,529.384z"/>
	<path fill="#EBBA36" d="M596.266,524.054c0.342-0.63,0.725-1.271,1.054-1.895c0.047-0.089,0.086-0.162,0.132-0.248
		c0.238-1.199,0.548-2.349,0.916-3.442c-0.459,0.835-1.019,1.874-1.687,3.138c-0.032,0.155-0.091,0.297-0.12,0.453
		C596.431,522.753,596.354,523.396,596.266,524.054z"/>
	<path fill="#EBBA36" d="M596.883,526.046c-0.293,0.524-0.604,1.061-0.916,1.594c-0.005,0.541,0.036,1.033,0.066,1.537
		c0.27-0.452,0.5-0.877,0.756-1.317C596.789,527.285,596.837,526.667,596.883,526.046z"/>
	<path fill="#EBBA36" d="M597.045,524.391c0.09-0.709,0.184-1.417,0.324-2.179c0.021-0.106,0.06-0.193,0.08-0.301
		c-0.047,0.086-0.085,0.159-0.131,0.248c-0.33,0.623-0.713,1.265-1.055,1.895c-0.099,0.742-0.168,1.455-0.211,2.144
		C596.38,525.614,596.715,525.001,597.045,524.391z"/>
	<path fill="#EBBA36" d="M606.549,529.479c1.394-1.011,2.709-2.184,3.913-3.486c1.197-1.309,2.247-2.756,3.126-4.298
		c0.886-1.557,1.546-3.04,1.97-4.411c0.438-1.453,0.548-2.787,0.319-3.976c-0.255-1.322-1.027-2.295-2.343-2.92
		c-1.891-0.724-3.985-0.021-6.292,2.173c-2.154,2.049-3.815,5.329-4.939,9.757c-0.919,3.625-1.26,6.396-1.037,8.479l0.1,0.904
		l0.887-0.188C603.654,531.217,605.1,530.53,606.549,529.479z M603.097,522.519c1.096-4.3,2.67-7.42,4.712-9.364
		c2.049-1.943,3.854-2.608,5.429-1.995c1.021,0.479,1.631,1.247,1.837,2.307c0.199,1.061,0.101,2.252-0.303,3.577
		c-0.41,1.337-1.048,2.752-1.896,4.25c-0.857,1.5-1.861,2.879-3.021,4.146c-1.167,1.264-2.423,2.386-3.789,3.375
		c-1.364,0.994-2.694,1.627-3.982,1.896C601.872,528.725,602.215,526.003,603.097,522.519z"/>
	<path fill="#EBBA36" d="M623.06,526.41c-0.535,0.7-1.081,1.378-1.642,2.016c-2.51,2.844-5.066,5.078-7.594,6.649
		c-2.503,1.542-4.912,2.482-7.159,2.799c-2.17,0.31-3.966-0.023-5.451-1.039c-1.466-1.011-2.521-2.697-3.149-5.021
		c-0.297-1.082-0.432-2.352-0.44-3.759c-0.255,0.443-0.495,0.877-0.761,1.327c0.07,0.948,0.188,1.853,0.408,2.648
		c0.683,2.527,1.838,4.351,3.479,5.479c1.641,1.124,3.643,1.517,6.032,1.176c2.394-0.336,4.881-1.314,7.477-2.914
		c2.584-1.604,5.186-3.87,7.774-6.804c0.258-0.292,0.501-0.619,0.753-0.924c0.009-0.056,0.009-0.104,0.016-0.157
		C622.859,527.422,622.984,526.894,623.06,526.41z"/>
	<path fill="#EBBA36" d="M600.642,515.24c0.062-0.112,0.1-0.246,0.159-0.356c1.207-2.19,2.644-3.988,4.263-5.345
		c1.604-1.349,3.285-2.18,5.153-2.534c0.501-0.094,1.006-0.14,1.504-0.14c1.277,0,2.559,0.312,3.813,0.945
		c1.528,0.729,2.535,1.741,3.078,3.089c0.557,1.402,0.728,2.937,0.505,4.553c-0.229,1.681-0.814,3.446-1.757,5.256
		c-0.946,1.835-2.182,3.584-3.655,5.194c-1.48,1.611-3.194,3.025-5.104,4.205c-1.888,1.173-3.896,1.962-5.962,2.349l-1.107,0.205
		l0.539,0.994c1.045,1.926,2.879,2.789,5.275,2.465c2.188-0.274,4.562-1.282,7.066-2.992c2.448-1.688,4.893-3.887,7.258-6.53
		c0.598-0.667,1.171-1.354,1.715-2.056c0.124-0.641,0.229-1.261,0.377-1.927c-0.828,1.181-1.716,2.33-2.706,3.434
		c-2.348,2.631-4.722,4.756-7.108,6.402c-2.391,1.63-4.621,2.589-6.702,2.854c-2.085,0.277-3.565-0.403-4.452-2.042
		c2.186-0.411,4.262-1.229,6.242-2.46c1.979-1.223,3.734-2.666,5.271-4.344c1.535-1.679,2.794-3.465,3.782-5.376
		c0.99-1.909,1.604-3.747,1.842-5.521c0.242-1.777,0.053-3.432-0.558-4.967c-0.615-1.534-1.779-2.711-3.488-3.525
		c-1.902-0.96-3.854-1.244-5.822-0.871c-1.984,0.377-3.823,1.272-5.531,2.713c-1.702,1.425-3.188,3.286-4.453,5.573
		c-0.682,1.236-1.238,2.575-1.713,3.982c0.242-0.441,0.467-0.846,0.65-1.168C599.601,516.252,600.135,515.575,600.642,515.24z"/>
	<path fill="#EBBA36" d="M598.208,522.237c-0.058,0.105-0.104,0.194-0.162,0.308c-0.341,0.646-0.669,1.234-1.001,1.847
		c-0.071,0.571-0.124,1.121-0.162,1.655c0.201-0.363,0.438-0.741,0.629-1.099c0.138-0.261,0.256-0.484,0.392-0.734
		c0.08-0.605,0.152-1.205,0.271-1.85C598.183,522.319,598.2,522.28,598.208,522.237z"/>
	<path fill="#EBBA36" d="M597.688,526.287c-0.281,0.515-0.596,1.044-0.897,1.571c-0.002,0.533,0.033,1.031,0.072,1.524
		c0.266-0.45,0.506-0.885,0.761-1.327C597.617,527.497,597.646,526.898,597.688,526.287z"/>
	<path fill="#EBBA36" d="M600.642,515.24c-0.507,0.335-1.041,1.013-1.624,2.062c-0.186,0.322-0.407,0.727-0.65,1.168
		c-0.368,1.096-0.678,2.243-0.916,3.442c0.669-1.265,1.229-2.306,1.683-3.136C599.55,517.528,600.056,516.348,600.642,515.24z"/>
	<path fill="#EBBA36" d="M597.9,524.213c-0.135,0.25-0.254,0.477-0.391,0.734c-0.188,0.355-0.428,0.733-0.629,1.099
		c-0.046,0.62-0.094,1.238-0.094,1.812c0.304-0.527,0.616-1.059,0.897-1.571C597.734,525.626,597.804,524.935,597.9,524.213z"/>
	<path fill="#EBBA36" d="M597.045,524.391c0.332-0.61,0.66-1.2,1.001-1.847c0.057-0.111,0.104-0.2,0.162-0.308
		c0.233-1.205,0.555-2.354,0.924-3.461c-0.454,0.83-1.014,1.871-1.683,3.136c-0.021,0.105-0.061,0.192-0.08,0.301
		C597.229,522.974,597.135,523.682,597.045,524.391z"/>
	<path fill="#EBBA36" d="M652.185,525.361c-0.615,1.067-1.269,2.167-1.976,3.316c-1.326,2.146-2.57,3.911-3.8,5.406
		c-1.365,1.678-2.448,2.46-3.408,2.46c-0.5-0.005-0.872-0.168-1.133-0.468c-0.456-0.521-0.575-1.389-0.394-2.816
		c0.209-1.604,0.688-3.581,1.422-5.876c0.706-2.234,1.591-4.714,2.621-7.364c1.025-2.634,2.104-5.081,3.2-7.283
		c0.406-0.856,0.571-1.673,0.483-2.4c-0.08-0.717-0.354-1.317-0.824-1.854c-0.48-0.538-1.116-0.938-1.89-1.19
		c-0.782-0.265-1.679-0.372-2.678-0.33c-1.979,0.847-3.836,2.035-5.529,3.535c-1.763,1.562-3.369,3.174-4.78,4.785l-4.147,4.75
		l2.794-5.652c0.353-0.712,0.734-1.402,1.166-2.073c0.418-0.666,0.892-1.301,1.396-1.89c-0.005-0.011,0.003-0.256-0.222-0.749
		c-0.308-0.666-0.732-1.277-1.269-1.813c-0.498-0.498-1.042-0.82-1.605-0.957c-0.5-0.004-0.805,0.209-1.146,0.667
		c-1.09,2.465-2.049,5.084-2.926,7.728c0.536-0.297,1.075-0.412,1.553-0.25c0.354,0.117,0.97,0.468,1.114,1.479
		c0.099,0.61-0.06,1.328-0.485,2.178c-1.541,3.131-3.261,5.949-5.123,8.42c-0.047,0.315-0.131,0.672-0.17,0.981
		c-0.356,2.875-0.377,5.292-0.054,7.178c0.146,0.854,0.374,1.525,0.673,2.004c0.034-0.534,0.088-1.088,0.154-1.657
		c0.145-0.986,0.346-2.146,0.625-3.488c0.279-1.361,0.689-2.816,1.256-4.459c1.264-3.562,2.805-6.497,4.588-8.733
		c1.785-2.242,3.508-3.892,5.12-4.895c1.368-0.854,2.522-1.27,3.527-1.27c0.275,0,0.544,0.032,0.794,0.095
		c0.756,0.196,1.132,0.636,1.314,0.966c0.334,0.608,0.346,1.385,0.028,2.379c-1.349,3.862-2.268,7.213-2.738,9.974
		c-0.461,2.756-0.632,5.082-0.502,6.915c0.128,1.739,0.506,3.021,1.113,3.807c0.562,0.723,1.219,1.055,2.062,1.055
		c0.376,0,1.045-0.186,2.07-1.073c0.953-0.829,1.933-1.891,2.911-3.154c0.987-1.286,1.989-2.729,2.969-4.286
		c0.62-0.98,1.167-1.908,1.731-2.851C652.087,526.196,652.159,525.769,652.185,525.361z"/>
	<path fill="#EBBA36" d="M628.585,516.766l-0.052-0.188c-0.011,0.022-0.118,0.051-0.311,0.179c-0.271,0.183-0.519,0.541-0.723,1.053
		c-0.47,1.013-1.006,1.989-1.573,2.951c-0.207,0.811-0.448,1.65-0.62,2.43c1.037-1.624,2.025-3.36,2.947-5.227
		C628.602,517.273,628.611,516.914,628.585,516.766z"/>
	<path fill="#EBBA36" d="M630.21,516.517c-0.146-1.013-0.762-1.361-1.114-1.479c-0.478-0.162-1.017-0.046-1.553,0.25
		c-0.201,0.607-0.41,1.214-0.596,1.825c0.232-0.459,0.498-0.829,0.815-1.037c0.413-0.278,0.771-0.357,1.073-0.259
		c0.311,0.104,0.495,0.377,0.558,0.817c0.071,0.445-0.062,1.009-0.403,1.691c-1.246,2.531-2.608,4.808-4.058,6.889
		c-0.117,0.643-0.239,1.287-0.333,1.899c1.862-2.472,3.582-5.289,5.123-8.42C630.15,517.846,630.309,517.128,630.21,516.517z"/>
	<path fill="#EBBA36" d="M629.396,516.634c-0.062-0.44-0.248-0.714-0.559-0.817c-0.305-0.101-0.66-0.021-1.073,0.259
		c-0.317,0.208-0.583,0.578-0.815,1.037c-0.121,0.396-0.273,0.789-0.392,1.187c-0.247,0.854-0.418,1.639-0.629,2.462
		c0.567-0.962,1.104-1.938,1.573-2.951c0.204-0.512,0.449-0.87,0.723-1.053c0.19-0.128,0.3-0.154,0.311-0.179l0.052,0.188
		c0.026,0.147,0.018,0.508-0.329,1.196c-0.922,1.864-1.91,3.602-2.947,5.226c-0.152,0.705-0.246,1.35-0.373,2.026
		c1.446-2.081,2.811-4.356,4.057-6.889C629.333,517.642,629.467,517.08,629.396,516.634z"/>
	<path fill="#EBBA36" d="M626.176,516.821c0.996-3.239,2.174-6.492,3.632-9.751c0.616-0.818,1.28-1.149,1.998-0.977
		c0.714,0.171,1.383,0.562,1.998,1.178c0.609,0.613,1.084,1.299,1.434,2.052c0.338,0.746,0.363,1.292,0.096,1.633
		c-0.479,0.549-0.918,1.141-1.326,1.79c-0.412,0.646-0.781,1.311-1.122,1.994c1.434-1.639,3.05-3.259,4.855-4.861
		c1.811-1.602,3.771-2.845,5.887-3.737c1.156-0.062,2.203,0.06,3.12,0.365c0.921,0.301,1.674,0.783,2.251,1.426
		c0.578,0.655,0.924,1.423,1.021,2.309c0.104,0.886-0.081,1.841-0.562,2.862c-1.089,2.188-2.146,4.595-3.167,7.214
		c-1.024,2.625-1.896,5.068-2.606,7.319c-0.723,2.251-1.188,4.159-1.391,5.731c-0.203,1.569,0,2.35,0.611,2.35
		c0.681,0.074,1.645-0.646,2.872-2.15c1.226-1.491,2.469-3.271,3.733-5.315c1.021-1.668,1.952-3.31,2.863-4.947
		c0.027-0.225,0.021-0.434,0.06-0.656c0.103-0.638,0.279-1.237,0.413-1.856c-0.173,0.316-0.346,0.632-0.536,0.982
		c-1.03,1.913-2.179,3.892-3.499,6.047c-1.27,2.047-2.505,3.81-3.673,5.229c-1.149,1.412-1.771,1.75-2.062,1.828
		c-0.036-0.188-0.072-0.59,0.032-1.403c0.192-1.508,0.649-3.386,1.355-5.589c0.7-2.202,1.569-4.647,2.588-7.271
		c1.01-2.584,2.064-4.989,3.148-7.161c0.546-1.154,0.758-2.271,0.637-3.307c-0.116-1.044-0.529-1.97-1.23-2.762
		c-0.679-0.76-1.553-1.315-2.601-1.659c-1.007-0.339-2.167-0.479-3.427-0.404l-0.271,0.063c-2.188,0.922-4.248,2.229-6.114,3.877
		c-0.295,0.265-0.589,0.533-0.879,0.795c-0.047-0.328-0.152-0.688-0.332-1.077c-0.391-0.847-0.927-1.614-1.598-2.291
		c-0.721-0.718-1.521-1.187-2.39-1.394c-1.033-0.255-2.001,0.152-2.938,1.438c-1.621,3.625-2.994,7.362-4.08,11.104
		c-0.229,0.792-0.384,1.521-0.584,2.284c0.58-0.97,1.129-1.951,1.601-2.967C626.044,517.029,626.119,516.941,626.176,516.821z"/>
	<path fill="#EBBA36" d="M651.044,529.887c-0.992,1.573-1.996,3.021-3.015,4.351c-1.029,1.33-2.039,2.418-3.021,3.275
		c-0.99,0.851-1.864,1.272-2.609,1.272c-1.095,0-1.997-0.454-2.709-1.373c-0.721-0.923-1.146-2.342-1.286-4.256
		c-0.137-1.905,0.036-4.274,0.511-7.108c0.48-2.824,1.406-6.19,2.766-10.082c0.41-1.292,0.157-2.06-0.767-2.3
		c-0.919-0.236-2.151,0.118-3.687,1.073c-1.532,0.957-3.172,2.528-4.91,4.707c-1.738,2.187-3.221,5.021-4.452,8.493
		c-0.541,1.574-0.951,3.018-1.229,4.354c-0.272,1.326-0.475,2.472-0.614,3.422c-0.139,1.159-0.206,2.218-0.206,3.18
		c-1.154-0.342-1.902-1.503-2.246-3.483c-0.321-1.888-0.312-4.242,0.011-7.034c-0.311,0.38-0.608,0.778-0.927,1.139
		c-0.004,0.006-0.009,0.008-0.011,0.01c-0.193,2.332-0.168,4.365,0.116,6.025c0.399,2.309,1.35,3.694,2.824,4.132l1.053,0.312
		v-1.099c0-0.939,0.07-1.979,0.202-3.062c0.136-0.935,0.332-2.062,0.603-3.374c0.269-1.29,0.66-2.685,1.197-4.246
		c1.202-3.384,2.654-6.16,4.32-8.254c1.67-2.098,3.254-3.618,4.707-4.523c1.75-1.093,2.535-1.107,3.04-0.973
		c0.228,0.058,0.272,0.14,0.289,0.164c0.036,0.066,0.138,0.341-0.093,1.063c-1.368,3.927-2.312,7.366-2.8,10.221
		c-0.48,2.885-0.657,5.34-0.519,7.307c0.15,2.101,0.629,3.638,1.454,4.7c0.872,1.118,2.002,1.688,3.357,1.688
		c0.955,0,2.017-0.497,3.147-1.477c1.037-0.903,2.092-2.044,3.138-3.396c1.021-1.326,2.048-2.812,3.056-4.41
		c0.18-0.283,0.325-0.545,0.503-0.826c-0.052-0.472-0.062-0.963-0.08-1.449C651.782,528.667,651.441,529.255,651.044,529.887z"/>
	<path fill="#EBBA36" d="M623.387,524.542c-0.121,0.637-0.229,1.259-0.327,1.868c0.373-0.484,0.737-1.005,1.101-1.522
		c0.121-0.641,0.215-1.254,0.358-1.925C624.153,523.494,623.786,524.027,623.387,524.542z"/>
	<path fill="#EBBA36" d="M623.577,528.376c0.016-0.132,0.021-0.25,0.04-0.385c0.048-0.388,0.149-0.829,0.214-1.227
		c-0.341,0.446-0.694,0.856-1.046,1.28c-0.062,0.51-0.104,0.995-0.146,1.479c0.002-0.002,0.007-0.005,0.011-0.01
		C622.969,529.156,623.269,528.757,623.577,528.376z"/>
	<path fill="#EBBA36" d="M625.162,520.447c0.206-0.794,0.367-1.546,0.604-2.38c0.12-0.414,0.28-0.83,0.407-1.246
		c-0.057,0.12-0.132,0.208-0.182,0.336c-0.473,1.016-1.021,1.997-1.601,2.967c-0.217,0.838-0.454,1.69-0.632,2.491
		C624.259,521.907,624.727,521.185,625.162,520.447z"/>
	<path fill="#EBBA36" d="M623.06,526.41c-0.074,0.482-0.197,1.013-0.259,1.479c-0.007,0.056-0.007,0.104-0.016,0.157
		c0.352-0.423,0.705-0.834,1.046-1.28c0.092-0.61,0.209-1.242,0.327-1.88C623.797,525.405,623.433,525.925,623.06,526.41z"/>
	<path fill="#EBBA36" d="M624.519,522.962c0.181-0.803,0.429-1.672,0.646-2.516c-0.438,0.736-0.903,1.46-1.398,2.168
		c-0.147,0.666-0.253,1.286-0.377,1.926C623.786,524.027,624.153,523.494,624.519,522.962z"/>
	<path fill="#EBBA36" d="M650.348,529.447c-0.979,1.56-1.979,3-2.969,4.286c-0.979,1.266-1.958,2.324-2.911,3.153
		c-1.023,0.891-1.693,1.074-2.069,1.074c-0.847,0-1.501-0.332-2.063-1.055c-0.606-0.784-0.985-2.065-1.113-3.808
		c-0.13-1.833,0.041-4.158,0.502-6.915c0.475-2.76,1.393-6.108,2.738-9.973c0.317-0.994,0.306-1.771-0.028-2.38
		c-0.185-0.329-0.561-0.769-1.314-0.966c-0.25-0.062-0.519-0.094-0.793-0.094c-1.004,0-2.16,0.413-3.528,1.27
		c-1.612,1.003-3.335,2.65-5.12,4.894c-1.783,2.237-3.324,5.174-4.588,8.734c-0.563,1.642-0.977,3.097-1.256,4.459
		c-0.279,1.342-0.48,2.502-0.625,3.487c-0.066,0.569-0.12,1.124-0.154,1.658c-0.299-0.479-0.524-1.147-0.673-2.005
		c-0.323-1.885-0.305-4.302,0.054-7.177c0.039-0.312,0.123-0.666,0.171-0.981c-0.332,0.442-0.682,0.846-1.023,1.264
		c-0.321,2.791-0.332,5.146-0.01,7.034c0.343,1.98,1.091,3.144,2.246,3.482c0-0.961,0.066-2.02,0.206-3.179
		c0.141-0.95,0.342-2.096,0.613-3.423c0.276-1.337,0.688-2.778,1.229-4.354c1.231-3.473,2.714-6.308,4.453-8.492
		c1.737-2.18,3.377-3.75,4.909-4.707c1.533-0.955,2.768-1.312,3.687-1.073c0.924,0.24,1.177,1.008,0.767,2.3
		c-1.357,3.891-2.281,7.258-2.766,10.082c-0.474,2.834-0.646,5.202-0.511,7.108c0.142,1.914,0.565,3.333,1.287,4.256
		c0.712,0.919,1.613,1.373,2.709,1.373c0.745,0,1.618-0.425,2.608-1.272c0.982-0.857,1.992-1.946,3.021-3.276
		c1.019-1.326,2.021-2.775,3.015-4.35c0.397-0.633,0.738-1.222,1.115-1.838c-0.021-0.486-0.091-0.952-0.08-1.452
		C651.515,527.538,650.968,528.465,650.348,529.447z"/>
	<path fill="#EBBA36" d="M627.311,515.388c0.077-0.052,0.154-0.06,0.232-0.103c0.877-2.644,1.836-5.262,2.926-7.728
		c0.342-0.458,0.646-0.671,1.146-0.667c0.563,0.138,1.107,0.459,1.605,0.957c0.534,0.537,0.961,1.147,1.269,1.813
		c0.225,0.494,0.217,0.739,0.222,0.749c-0.505,0.59-0.978,1.225-1.396,1.891c-0.433,0.67-0.814,1.36-1.166,2.072l-2.794,5.653
		l4.146-4.75c1.411-1.612,3.02-3.226,4.78-4.785c1.693-1.5,3.553-2.688,5.53-3.536c0.998-0.042,1.895,0.066,2.677,0.33
		c0.771,0.253,1.407,0.652,1.89,1.19c0.473,0.537,0.744,1.141,0.824,1.855c0.088,0.729-0.077,1.544-0.483,2.4
		c-1.096,2.201-2.175,4.649-3.2,7.282c-1.03,2.651-1.913,5.131-2.62,7.365c-0.735,2.295-1.214,4.271-1.423,5.876
		c-0.184,1.429-0.062,2.295,0.394,2.816c0.261,0.3,0.633,0.462,1.133,0.468c0.96,0,2.043-0.782,3.408-2.461
		c1.229-1.494,2.474-3.262,3.8-5.405c0.707-1.149,1.359-2.249,1.977-3.317c0.045-0.678,0.094-1.358,0.188-2.06
		c-0.911,1.639-1.842,3.279-2.863,4.947c-1.267,2.044-2.51,3.824-3.733,5.314c-1.229,1.507-2.191,2.228-2.872,2.151
		c-0.611,0-0.814-0.779-0.611-2.35c0.203-1.573,0.668-3.48,1.391-5.731c0.713-2.251,1.582-4.695,2.606-7.32
		c1.021-2.618,2.078-5.024,3.167-7.213c0.482-1.021,0.668-1.979,0.562-2.862c-0.1-0.887-0.443-1.652-1.021-2.309
		c-0.577-0.643-1.33-1.125-2.251-1.427c-0.917-0.308-1.964-0.428-3.12-0.364c-2.114,0.895-4.076,2.137-5.887,3.736
		c-1.807,1.604-3.424,3.226-4.855,4.861c0.342-0.685,0.71-1.349,1.122-1.993c0.408-0.649,0.851-1.242,1.326-1.79
		c0.271-0.342,0.242-0.888-0.096-1.634c-0.35-0.753-0.822-1.438-1.434-2.051c-0.614-0.614-1.282-1.007-1.997-1.178
		c-0.719-0.176-1.383,0.155-1.998,0.976c-1.458,3.26-2.637,6.513-3.633,9.751C626.476,516.206,626.846,515.693,627.311,515.388z"/>
	<path fill="#EBBA36" d="M624.519,522.962c-0.146,0.671-0.237,1.284-0.358,1.925c0.39-0.556,0.774-1.111,1.148-1.699
		c0.172-0.776,0.413-1.618,0.62-2.429C625.489,521.51,625.021,522.244,624.519,522.962z"/>
	<path fill="#EBBA36" d="M626.947,517.111c0.186-0.61,0.395-1.219,0.596-1.825c-0.078,0.043-0.155,0.051-0.232,0.103
		c-0.465,0.307-0.835,0.817-1.135,1.435c-0.127,0.416-0.287,0.832-0.406,1.246c-0.238,0.834-0.399,1.586-0.605,2.38
		c0.569-0.96,1.105-1.938,1.576-2.943C626.8,517.349,626.878,517.243,626.947,517.111z"/>
	<path fill="#EBBA36" d="M624.935,525.214c-0.361,0.522-0.725,1.058-1.104,1.553c-0.062,0.396-0.166,0.839-0.214,1.227
		c-0.019,0.136-0.024,0.253-0.04,0.386c0.344-0.417,0.69-0.819,1.022-1.264C624.694,526.501,624.816,525.855,624.935,525.214z"/>
	<path fill="#EBBA36" d="M625.309,523.188c-0.374,0.588-0.761,1.146-1.148,1.699c-0.118,0.638-0.235,1.27-0.327,1.88
		c0.379-0.495,0.74-1.028,1.104-1.553C625.062,524.536,625.154,523.893,625.309,523.188z"/>
	<path fill="#EBBA36" d="M625.929,520.759c0.211-0.823,0.381-1.606,0.629-2.462c0.116-0.396,0.271-0.789,0.392-1.187
		c-0.069,0.132-0.147,0.236-0.209,0.393c-0.471,1.008-1.006,1.983-1.576,2.943c-0.217,0.844-0.465,1.713-0.645,2.516
		C625.021,522.244,625.489,521.51,625.929,520.759z"/>
	<path fill="#EBBA36" d="M681.46,522.946c-0.508,0-0.985-0.129-1.416-0.388c-1-0.584-1.55-1.771-1.679-3.619
		c-0.114-1.683,0.354-3.793,1.439-6.451c0.479-1.137,0.58-2.133,0.325-3.055c-0.25-0.903-0.649-1.569-1.185-1.972
		c-0.474-0.349-0.962-0.438-1.532-0.273c-0.545,0.16-1.014,0.794-1.392,1.888c-1.051,3.264-1.419,6.134-1.098,8.523l0.021,0.142
		l-0.031,0.14c-0.63,3.007-1.526,5.769-2.668,8.209c-1.15,2.478-2.447,4.587-3.854,6.269c-1.408,1.702-2.876,3.004-4.352,3.867
		c-1.587,0.928-3.023,1.236-4.26,0.902c-1.269-0.332-2.208-1.177-2.797-2.51c-0.522-1.196-0.771-2.621-0.731-4.239
		c0.033-1.539,0.261-3.23,0.684-5.027c0.431-1.789,1.019-3.514,1.743-5.115c0.723-1.583,1.596-3.066,2.598-4.399
		c1.025-1.354,2.114-2.344,3.236-2.944c0.621-0.359,1.034-0.857,1.24-1.511c0.24-0.76,0.314-1.464,0.224-2.162
		c-0.077-0.682-0.284-1.258-0.614-1.725c-0.252-0.36-0.443-0.36-0.525-0.36c-1.975,0.396-3.602,1.358-5.011,2.896
		c-1.351,1.475-2.478,3.244-3.415,5.209c0.005-0.002,0.007-0.006,0.01-0.007c0.785-0.497,1.51-0.372,1.936,0.205
		c0.301,0.444,0.395,1.026,0.306,1.808c-0.083,0.688-0.312,1.396-0.699,2.165c-0.2,0.411-0.61,1.203-1.235,2.374
		c-0.611,1.171-1.357,2.481-2.213,3.967c-0.238,0.408-0.521,0.854-0.771,1.271c-0.002,1.018,0.03,2.021,0.161,2.967
		c0.285,2.109,0.947,3.957,1.963,5.483c0.97,1.443,2.288,2.267,4.035,2.502c1.23,0.202,2.525,0.046,4.049-0.423
		c1.533-0.483,3.102-1.32,4.658-2.485c1.569-1.177,3.08-2.74,4.485-4.646c1.414-1.901,2.636-4.234,3.626-6.949l0.358-0.979
		l0.867,0.576c1.412,0.94,2.971,1.094,4.756,0.478c0.045-0.305,0.08-0.604,0.138-0.918
		C682.363,522.814,681.896,522.946,681.46,522.946z"/>
	<path fill="#EBBA36" d="M656.498,518.676c0.3-0.596,0.475-1.14,0.532-1.626c0.01-0.066,0.015-0.131,0.021-0.188
		c-0.195,0.229-0.47,0.604-0.847,1.256c-0.427,0.751-1.034,1.85-1.812,3.266c-0.104,0.508-0.253,0.996-0.336,1.517
		c-0.021,0.138-0.015,0.261-0.036,0.396c0.457-0.811,0.89-1.581,1.259-2.285C655.896,519.861,656.295,519.083,656.498,518.676z"/>
	<path fill="#EBBA36" d="M656.73,521.78c0.625-1.171,1.034-1.963,1.234-2.374c0.391-0.77,0.616-1.477,0.699-2.165
		c0.089-0.779-0.005-1.361-0.307-1.809c-0.425-0.576-1.147-0.701-1.935-0.204c-0.003,0-0.005,0.005-0.01,0.007
		c-0.083,0.178-0.194,0.328-0.274,0.508c-0.33,0.741-0.582,1.535-0.848,2.319c0.062-0.116,0.139-0.25,0.198-0.354
		c0.549-0.959,1.006-1.55,1.38-1.79c0.38-0.24,0.649-0.24,0.825,0c0.163,0.24,0.218,0.649,0.148,1.229
		c-0.067,0.583-0.271,1.21-0.614,1.888c-0.201,0.412-0.607,1.199-1.228,2.357c-0.603,1.147-1.335,2.437-2.165,3.881
		c-0.043,0.588-0.092,1.177-0.096,1.744c0.252-0.418,0.53-0.862,0.771-1.271C655.371,524.263,656.117,522.951,656.73,521.78z"/>
	<path fill="#EBBA36" d="M657.234,519.035c0.343-0.678,0.545-1.305,0.612-1.889c0.067-0.576,0.015-0.985-0.148-1.228
		c-0.175-0.24-0.445-0.24-0.825,0c-0.374,0.24-0.831,0.832-1.38,1.79c-0.062,0.103-0.136,0.235-0.198,0.353
		c-0.364,1.071-0.66,2.179-0.9,3.321c0.776-1.416,1.387-2.515,1.812-3.266c0.377-0.651,0.648-1.027,0.847-1.256
		c-0.006,0.057-0.011,0.119-0.021,0.188c-0.06,0.486-0.232,1.03-0.532,1.626c-0.203,0.407-0.604,1.187-1.22,2.336
		c-0.369,0.704-0.801,1.477-1.258,2.285c-0.099,0.675-0.135,1.324-0.182,1.977c0.83-1.443,1.562-2.73,2.165-3.88
		C656.624,520.234,657.03,519.447,657.234,519.035z"/>
	<path fill="#EBBA36" d="M655.394,515.408c1.022-2.285,2.306-4.269,3.834-5.938c1.533-1.67,3.292-2.711,5.273-3.118
		c0.608-0.139,1.13,0.082,1.535,0.666c0.409,0.576,0.668,1.28,0.763,2.096c0.106,0.819,0.021,1.652-0.255,2.509
		c-0.269,0.854-0.817,1.52-1.636,1.993c-1.026,0.549-2.015,1.451-2.971,2.711c-0.95,1.27-1.793,2.678-2.505,4.248
		c-0.715,1.57-1.272,3.221-1.69,4.969c-0.407,1.732-0.63,3.353-0.661,4.854c-0.036,1.507,0.184,2.799,0.661,3.891
		c0.482,1.095,1.23,1.78,2.257,2.05c1.021,0.271,2.229,0,3.633-0.821c1.397-0.815,2.778-2.047,4.136-3.685
		c1.367-1.64,2.612-3.668,3.739-6.088c1.13-2.421,1.995-5.104,2.608-8.032c-0.344-2.528,0.035-5.496,1.134-8.9
		c0.474-1.372,1.118-2.167,1.938-2.409c0.82-0.238,1.567-0.099,2.257,0.406c0.678,0.513,1.179,1.321,1.479,2.407
		c0.305,1.098,0.186,2.29-0.354,3.584c-1.029,2.521-1.486,4.553-1.386,6.086c0.106,1.534,0.526,2.529,1.279,2.969
		c0.705,0.422,1.566,0.334,2.573-0.213c0.09-0.422,0.226-0.811,0.33-1.222c-0.188,0.156-0.371,0.312-0.562,0.423
		c-0.81,0.479-1.425,0.604-1.93,0.305c-0.614-0.36-0.816-1.46-0.872-2.315c-0.099-1.407,0.347-3.334,1.321-5.715
		c0.608-1.462,0.741-2.849,0.389-4.12c-0.352-1.261-0.948-2.218-1.786-2.847c-0.89-0.658-1.89-0.853-2.974-0.537
		c-1.089,0.321-1.925,1.309-2.489,2.948c-1.113,3.445-1.509,6.514-1.185,9.118c-0.604,2.833-1.45,5.43-2.52,7.716
		c-1.094,2.353-2.314,4.339-3.627,5.912c-1.293,1.559-2.61,2.732-3.921,3.5c-1.19,0.697-2.188,0.957-3.009,0.736
		c-0.771-0.205-1.331-0.725-1.713-1.586c-0.431-0.976-0.626-2.162-0.595-3.541c0.03-1.428,0.244-3.006,0.641-4.688
		c0.4-1.687,0.955-3.308,1.641-4.814c0.671-1.477,1.481-2.854,2.413-4.089c0.88-1.16,1.788-1.997,2.724-2.501
		c1.006-0.576,1.679-1.402,2.009-2.451c0.311-0.972,0.406-1.934,0.291-2.854c-0.112-0.95-0.417-1.784-0.907-2.473
		c-0.812-1.159-1.728-1.145-2.374-0.998c-2.145,0.438-4.064,1.572-5.713,3.368c-1.591,1.736-2.931,3.81-3.979,6.154
		c-0.796,1.784-1.357,3.719-1.797,5.716c0.706-1.291,1.271-2.312,1.702-3.077C654.816,516.938,655.062,516.149,655.394,515.408z"/>
	<path fill="#EBBA36" d="M677.495,523.751c-1.024,2.797-2.27,5.181-3.735,7.153c-1.468,1.982-3.016,3.584-4.656,4.812
		c-1.639,1.229-3.271,2.102-4.905,2.614c-1.644,0.508-3.111,0.661-4.406,0.454c-1.979-0.269-3.508-1.224-4.604-2.861
		c-1.087-1.638-1.787-3.579-2.093-5.828c-0.08-0.585-0.067-1.225-0.103-1.835c-0.251,0.412-0.49,0.817-0.751,1.236
		c0.021,0.23,0.008,0.48,0.038,0.707c0.318,2.357,1.066,4.438,2.225,6.174c1.229,1.838,2.972,2.923,5.159,3.219
		c0.413,0.066,0.844,0.101,1.29,0.101c1.062,0,2.232-0.19,3.489-0.58c1.72-0.541,3.454-1.466,5.153-2.739
		c1.7-1.273,3.321-2.949,4.822-4.981c1.346-1.809,2.521-3.979,3.505-6.46c1.393,0.661,2.929,0.763,4.549,0.362
		c0.026-0.286,0.067-0.587,0.104-0.882C680.707,524.958,679.008,524.755,677.495,523.751z"/>
	<path fill="#EBBA36" d="M652.185,525.361c-0.023,0.406-0.098,0.835-0.104,1.234c0.312-0.522,0.663-1.072,0.963-1.585
		c0.036-0.465,0.062-0.932,0.128-1.412C652.849,524.182,652.53,524.761,652.185,525.361z"/>
	<path fill="#EBBA36" d="M652.373,523.302c0.209-0.378,0.457-0.766,0.66-1.143c0.207-0.383,0.396-0.727,0.584-1.068
		c0.248-1.161,0.556-2.29,0.931-3.381c-0.431,0.764-0.996,1.786-1.702,3.077c-0.134,0.619-0.312,1.221-0.413,1.855
		C652.396,522.869,652.4,523.078,652.373,523.302z"/>
	<path fill="#EBBA36" d="M652.91,526.811c-0.246,0.408-0.498,0.823-0.751,1.238c0.021,0.486,0.03,0.979,0.08,1.448
		c0.261-0.419,0.5-0.824,0.751-1.236C652.967,527.776,652.905,527.311,652.91,526.811z"/>
	<path fill="#EBBA36" d="M653.042,525.012c-0.3,0.513-0.648,1.062-0.963,1.585c-0.011,0.5,0.059,0.967,0.08,1.452
		c0.253-0.415,0.505-0.83,0.751-1.237C652.918,526.23,652.992,525.614,653.042,525.012z"/>
	<path fill="#EBBA36" d="M653.17,523.6c0.036-0.281,0.031-0.542,0.075-0.828c0.09-0.577,0.253-1.118,0.372-1.681
		c-0.188,0.344-0.377,0.688-0.584,1.068c-0.203,0.377-0.451,0.765-0.66,1.143c-0.096,0.699-0.146,1.382-0.188,2.061
		C652.53,524.761,652.849,524.182,653.17,523.6z"/>
	<path fill="#EBBA36" d="M656.416,515.235c0.938-1.966,2.065-3.734,3.415-5.209c1.409-1.535,3.036-2.499,5.011-2.896
		c0.082,0,0.273,0,0.525,0.36c0.33,0.466,0.537,1.043,0.615,1.725c0.092,0.697,0.018,1.402-0.225,2.162
		c-0.206,0.651-0.619,1.149-1.24,1.511c-1.121,0.603-2.211,1.592-3.236,2.943c-1.001,1.333-1.875,2.817-2.598,4.4
		c-0.727,1.604-1.312,3.325-1.741,5.115c-0.425,1.797-0.65,3.488-0.686,5.026c-0.039,1.619,0.209,3.044,0.731,4.24
		c0.589,1.333,1.528,2.178,2.797,2.509c1.234,0.334,2.673,0.023,4.26-0.901c1.477-0.863,2.941-2.165,4.354-3.868
		c1.402-1.681,2.699-3.791,3.852-6.268c1.143-2.441,2.038-5.202,2.668-8.209l0.031-0.14l-0.021-0.142
		c-0.319-2.393,0.047-5.262,1.099-8.523c0.377-1.094,0.846-1.728,1.391-1.889c0.57-0.164,1.062-0.072,1.532,0.274
		c0.534,0.4,0.935,1.066,1.185,1.972c0.255,0.921,0.151,1.918-0.325,3.055c-1.086,2.658-1.556,4.771-1.439,6.45
		c0.129,1.851,0.679,3.036,1.679,3.62c0.432,0.258,0.908,0.388,1.416,0.388c0.438,0,0.903-0.133,1.384-0.322
		c0.03-0.192,0.047-0.369,0.082-0.563c0.029-0.146,0.082-0.273,0.111-0.42c-1.007,0.547-1.868,0.635-2.573,0.213
		c-0.753-0.438-1.173-1.436-1.278-2.969c-0.104-1.533,0.354-3.562,1.385-6.086c0.541-1.294,0.659-2.487,0.354-3.584
		c-0.302-1.087-0.803-1.896-1.479-2.407c-0.688-0.505-1.437-0.646-2.255-0.406c-0.821,0.242-1.467,1.036-1.939,2.409
		c-1.098,3.403-1.477,6.372-1.134,8.899c-0.613,2.932-1.479,5.612-2.608,8.033c-1.127,2.42-2.372,4.448-3.738,6.088
		c-1.356,1.638-2.737,2.867-4.137,3.685c-1.399,0.82-2.612,1.092-3.633,0.82c-1.023-0.269-1.771-0.954-2.257-2.049
		c-0.479-1.092-0.697-2.384-0.661-3.892c0.031-1.501,0.254-3.119,0.661-4.854c0.418-1.748,0.979-3.396,1.691-4.968
		c0.712-1.571,1.554-2.979,2.506-4.248c0.956-1.26,1.94-2.162,2.969-2.711c0.817-0.476,1.368-1.142,1.636-1.993
		c0.273-0.854,0.361-1.688,0.255-2.509c-0.095-0.813-0.354-1.52-0.763-2.096c-0.405-0.584-0.927-0.806-1.535-0.666
		c-1.979,0.407-3.739,1.448-5.272,3.118c-1.529,1.669-2.812,3.65-3.834,5.938c-0.331,0.741-0.576,1.527-0.847,2.302
		c0.077-0.134,0.163-0.286,0.229-0.404C655.404,516.216,655.924,515.559,656.416,515.235z"/>
	<path fill="#EBBA36" d="M677.95,523.065l-0.867-0.576l-0.358,0.979c-0.989,2.715-2.212,5.048-3.626,6.948
		c-1.405,1.904-2.916,3.47-4.485,4.646c-1.559,1.164-3.125,2.002-4.658,2.485c-1.521,0.469-2.816,0.625-4.049,0.423
		c-1.747-0.235-3.065-1.059-4.035-2.502c-1.016-1.526-1.677-3.374-1.963-5.483c-0.13-0.946-0.163-1.949-0.161-2.967
		c-0.242,0.407-0.5,0.826-0.755,1.242c0.032,0.61,0.021,1.25,0.103,1.835c0.306,2.249,1.006,4.19,2.093,5.828
		c1.099,1.641,2.627,2.595,4.604,2.861c1.295,0.207,2.765,0.054,4.406-0.453c1.636-0.516,3.269-1.386,4.905-2.615
		c1.643-1.229,3.188-2.828,4.656-4.812c1.469-1.975,2.711-4.356,3.735-7.153c1.513,1.004,3.212,1.208,5.079,0.665
		c0.037-0.282,0.089-0.582,0.132-0.875C680.921,524.159,679.362,524.007,677.95,523.065z"/>
	<path fill="#EBBA36" d="M654.394,521.384c-0.203,0.371-0.413,0.753-0.641,1.17c-0.183,0.341-0.391,0.7-0.583,1.046
		c-0.064,0.48-0.092,0.947-0.128,1.412c0.016-0.026,0.036-0.061,0.054-0.089c0.33-0.575,0.63-1.104,0.927-1.626
		c0.021-0.138,0.016-0.261,0.035-0.396C654.141,522.38,654.288,521.892,654.394,521.384z"/>
	<path fill="#EBBA36" d="M656.142,515.743c0.08-0.181,0.191-0.33,0.274-0.508c-0.492,0.322-1.012,0.979-1.639,2.068
		c-0.066,0.118-0.152,0.271-0.229,0.405c-0.375,1.091-0.683,2.22-0.931,3.381c0.695-1.271,1.254-2.275,1.677-3.028
		C655.56,517.278,655.812,516.484,656.142,515.743z"/>
	<path fill="#EBBA36" d="M653.841,525.273c-0.014,0.021-0.021,0.042-0.035,0.062c-0.274,0.474-0.604,0.986-0.896,1.475
		c-0.005,0.5,0.057,0.967,0.08,1.45c0.255-0.416,0.513-0.835,0.755-1.242C653.749,526.45,653.798,525.861,653.841,525.273z"/>
	<path fill="#EBBA36" d="M653.841,525.273c0.047-0.651,0.083-1.303,0.182-1.978c-0.297,0.522-0.597,1.051-0.927,1.626
		c-0.018,0.028-0.038,0.062-0.054,0.089c-0.05,0.604-0.124,1.22-0.132,1.799c0.291-0.486,0.619-1.001,0.896-1.475
		C653.818,525.315,653.827,525.294,653.841,525.273z"/>
	<path fill="#EBBA36" d="M653.17,523.6c0.192-0.346,0.4-0.705,0.583-1.046c0.229-0.417,0.438-0.799,0.641-1.17
		c0.24-1.145,0.536-2.25,0.9-3.321c-0.423,0.753-0.979,1.759-1.677,3.028c-0.119,0.562-0.282,1.104-0.372,1.682
		C653.201,523.058,653.206,523.317,653.17,523.6z"/>
	<path fill="#EBBA36" d="M708.042,526.597c-2.376,2.649-4.819,4.849-7.262,6.53c-2.506,1.71-4.884,2.716-7.066,2.992
		c-2.404,0.32-4.241-0.544-5.276-2.468l-0.536-0.991l1.104-0.205c2.067-0.387,4.074-1.176,5.959-2.35
		c1.921-1.181,3.636-2.595,5.103-4.201c1.489-1.629,2.724-3.381,3.666-5.198c0.934-1.804,1.522-3.569,1.757-5.258
		c0.218-1.621,0.047-3.15-0.513-4.548c-0.542-1.35-1.548-2.36-3.071-3.094c-1.262-0.63-2.54-0.942-3.814-0.942
		c-0.498,0-1.007,0.046-1.512,0.14c-1.841,0.352-3.571,1.204-5.146,2.532c-1.62,1.35-3.053,3.146-4.263,5.347
		c-0.088,0.156-0.142,0.348-0.229,0.508c0.023-0.017,0.051-0.044,0.071-0.061c0.812-0.505,1.517-0.377,1.94,0.196
		c0.3,0.442,0.404,0.995,0.354,1.772c-0.035,0.664-0.209,1.389-0.519,2.15c-1.208,2.546-2.756,4.242-4.593,5.183
		c-0.354,2.853-0.294,5.271,0.222,7.188c0.628,2.314,1.689,4.003,3.155,5.015c1.479,1.015,3.28,1.354,5.46,1.037
		c2.246-0.313,4.649-1.26,7.145-2.798c2.516-1.558,5.072-3.795,7.604-6.649c2.256-2.555,4.312-5.652,6.152-9.174
		c-0.225-0.091-0.457-0.161-0.673-0.269C711.875,521.7,710.14,524.254,708.042,526.597z M687.626,530.794
		c-0.217-2.086,0.124-4.859,1.045-8.479c1.122-4.433,2.784-7.714,4.94-9.758c2.272-2.168,4.421-2.891,6.289-2.172
		c1.301,0.618,2.095,1.617,2.348,2.918c0.227,1.197,0.113,2.533-0.33,3.979c-0.423,1.374-1.084,2.861-1.96,4.409
		c-0.903,1.577-1.926,2.984-3.135,4.298c-1.168,1.285-2.484,2.456-3.908,3.485c-1.455,1.059-2.903,1.742-4.304,2.033l-0.889,0.188
		L687.626,530.794z"/>
	<path fill="#EBBA36" d="M687.29,518.794c0.223-0.554,0.354-1.101,0.383-1.588c0.008-0.103,0.01-0.188,0.01-0.266
		c-0.181,0.216-0.428,0.587-0.759,1.236c-0.642,1.334-1.339,2.347-2.095,3.107c-0.084,0.37-0.216,0.698-0.289,1.079
		c-0.007,0.041-0.009,0.076-0.019,0.117C685.578,521.639,686.515,520.432,687.29,518.794z"/>
	<path fill="#EBBA36" d="M688.795,519.452c0.311-0.763,0.482-1.486,0.52-2.15c0.05-0.777-0.058-1.33-0.355-1.772
		c-0.426-0.573-1.129-0.701-1.94-0.196c-0.021,0.017-0.048,0.045-0.071,0.061c-0.625,1.205-1.146,2.511-1.577,3.894
		c0.282-0.442,0.56-0.926,0.824-1.477c0.479-0.949,0.902-1.542,1.279-1.789c0.377-0.238,0.649-0.238,0.825,0
		c0.165,0.247,0.232,0.654,0.196,1.23c-0.031,0.578-0.186,1.214-0.46,1.896c-1.001,2.109-2.231,3.602-3.686,4.507
		c-0.052,0.327-0.105,0.666-0.146,0.981C686.039,523.694,687.587,521.998,688.795,519.452z"/>
	<path fill="#EBBA36" d="M688.033,519.145c0.274-0.682,0.429-1.315,0.46-1.896c0.036-0.576-0.031-0.983-0.196-1.231
		c-0.176-0.237-0.448-0.237-0.825,0c-0.377,0.248-0.8,0.841-1.279,1.79c-0.267,0.551-0.541,1.032-0.824,1.477
		c-0.203,0.646-0.376,1.321-0.537,2.004c0.756-0.763,1.453-1.773,2.095-3.107c0.331-0.649,0.578-1.021,0.759-1.236
		c0,0.077-0.002,0.164-0.01,0.267c-0.025,0.486-0.16,1.033-0.383,1.587c-0.775,1.638-1.712,2.845-2.769,3.688
		c-0.074,0.405-0.112,0.776-0.174,1.168C685.802,522.746,687.032,521.255,688.033,519.145z"/>
	<path fill="#EBBA36" d="M684.609,518.938c0.498-1.575,1.082-3.082,1.842-4.451c1.261-2.287,2.738-4.148,4.451-5.573
		c1.701-1.438,3.545-2.336,5.522-2.713c1.981-0.373,3.921-0.089,5.835,0.871c1.701,0.814,2.864,1.991,3.481,3.525
		c0.612,1.535,0.799,3.188,0.561,4.968c-0.244,1.772-0.854,3.61-1.841,5.521c-0.988,1.911-2.255,3.697-3.79,5.376
		c-1.529,1.678-3.289,3.122-5.271,4.344c-1.979,1.229-4.056,2.049-6.241,2.46c0.883,1.639,2.368,2.318,4.453,2.042
		c2.078-0.267,4.312-1.227,6.7-2.854c2.391-1.646,4.765-3.771,7.114-6.402c2.069-2.307,3.763-4.798,5.116-7.451
		c-0.237-0.147-0.478-0.291-0.683-0.464c-1.327,2.614-3.004,5.092-5.042,7.369c-2.291,2.552-4.635,4.661-6.97,6.269
		c-2.283,1.562-4.419,2.478-6.349,2.725c-1.256,0.165-2.229-0.061-2.932-0.708c1.82-0.478,3.587-1.242,5.259-2.279
		c2.048-1.266,3.88-2.775,5.447-4.493c1.591-1.732,2.903-3.604,3.915-5.553c1.019-1.966,1.669-3.916,1.927-5.788
		c0.252-1.909,0.046-3.721-0.614-5.382c-0.693-1.725-2.002-3.058-3.875-3.957c-2.058-1.027-4.194-1.349-6.355-0.945
		c-2.122,0.407-4.105,1.383-5.896,2.891c-1.772,1.477-3.336,3.433-4.646,5.811c-1.043,1.879-1.79,4.039-2.364,6.331
		C683.793,520.05,684.207,519.552,684.609,518.938z"/>
	<path fill="#EBBA36" d="M708.398,528.971c-2.596,2.934-5.188,5.197-7.779,6.804c-2.587,1.599-5.078,2.578-7.464,2.915
		c-2.396,0.34-4.404-0.053-6.039-1.177c-1.636-1.13-2.801-2.951-3.482-5.479c-0.512-1.893-0.62-4.212-0.325-6.958
		c-0.006,0.002-0.011,0.005-0.016,0.007c-0.279,0.099-0.547,0.146-0.82,0.217c-0.264,2.696-0.147,5.033,0.366,6.95
		c0.732,2.704,2.016,4.7,3.812,5.939c1.391,0.952,3.039,1.438,4.896,1.438c0.555,0,1.127-0.041,1.727-0.127
		c2.473-0.351,5.087-1.364,7.78-3.027c2.648-1.643,5.329-3.98,7.967-6.958c2.396-2.717,4.571-6.01,6.506-9.74
		c-0.277-0.062-0.553-0.131-0.816-0.213C712.82,523.179,710.729,526.333,708.398,528.971z"/>
	<path fill="#EBBA36" d="M696.217,525.438c1.166-1.269,2.167-2.646,3.023-4.146c0.848-1.498,1.479-2.912,1.892-4.25
		c0.409-1.324,0.513-2.518,0.312-3.576c-0.207-1.06-0.825-1.827-1.844-2.307c-1.568-0.613-3.385,0.051-5.428,1.995
		c-2.048,1.944-3.618,5.064-4.706,9.364c-0.887,3.483-1.229,6.206-1.021,8.188c1.295-0.269,2.621-0.899,3.986-1.896
		C693.8,527.822,695.062,526.7,696.217,525.438z M689.211,529.642c-0.021-1.773,0.334-4.094,1.053-6.922
		c1.046-4.125,2.554-7.142,4.479-8.972c1.388-1.321,2.632-1.989,3.688-1.989c0.306,0,0.591,0.054,0.82,0.14
		c0.789,0.375,1.228,0.923,1.385,1.72c0.173,0.925,0.077,1.994-0.291,3.185c-0.387,1.263-0.999,2.639-1.813,4.081
		c-0.839,1.467-1.792,2.775-2.916,4c-1.101,1.2-2.332,2.302-3.664,3.267C691.017,528.829,690.098,529.329,689.211,529.642z"/>
	<path fill="#EBBA36" d="M683.743,522.188c-0.033,0.021-0.064,0.051-0.099,0.07c-0.274,0.163-0.539,0.261-0.803,0.365
		c-0.058,0.314-0.093,0.614-0.138,0.919c0.016-0.007,0.028-0.007,0.045-0.012c0.296-0.104,0.571-0.271,0.851-0.425
		c0.054-0.306,0.074-0.584,0.136-0.896C683.738,522.203,683.74,522.196,683.743,522.188z"/>
	<path fill="#EBBA36" d="M683.308,525.075c0.035-0.312,0.104-0.66,0.146-0.983c-0.146,0.064-0.284,0.163-0.438,0.219
		c-0.149,0.052-0.293,0.063-0.441,0.106c-0.035,0.295-0.076,0.595-0.104,0.882c0.273-0.067,0.541-0.118,0.82-0.216
		C683.297,525.08,683.302,525.077,683.308,525.075z"/>
	<path fill="#EBBA36" d="M683.225,521.551c0.297-0.175,0.586-0.404,0.867-0.671c0.157-0.66,0.319-1.315,0.519-1.942
		c-0.401,0.614-0.815,1.112-1.241,1.479c-0.104,0.412-0.24,0.801-0.33,1.223C683.102,521.607,683.161,521.591,683.225,521.551z"/>
	<path fill="#EBBA36" d="M682.844,522.624c0.264-0.104,0.526-0.202,0.803-0.365c0.032-0.021,0.063-0.052,0.099-0.07
		c0.088-0.462,0.239-0.863,0.349-1.308c-0.281,0.267-0.569,0.495-0.867,0.671c-0.062,0.04-0.123,0.058-0.188,0.089
		c-0.029,0.146-0.082,0.271-0.111,0.42C682.89,522.255,682.874,522.431,682.844,522.624z"/>
	<path fill="#EBBA36" d="M682.751,523.531c-0.017,0.005-0.029,0.005-0.045,0.011c-0.043,0.293-0.095,0.593-0.132,0.875
		c0.148-0.043,0.292-0.057,0.441-0.107c0.152-0.055,0.29-0.151,0.438-0.218c0.045-0.32,0.094-0.651,0.146-0.983
		C683.322,523.259,683.047,523.429,682.751,523.531z"/>
	<path fill="#EBBA36" d="M707.785,528.425c-2.529,2.854-5.088,5.094-7.604,6.649c-2.492,1.538-4.896,2.482-7.145,2.798
		c-2.18,0.317-3.981-0.022-5.46-1.036c-1.465-1.013-2.527-2.699-3.155-5.016c-0.515-1.916-0.574-4.336-0.222-7.188
		c-0.296,0.151-0.583,0.33-0.896,0.44c-0.295,2.746-0.187,5.065,0.325,6.958c0.683,2.527,1.848,4.351,3.482,5.479
		c1.635,1.124,3.643,1.517,6.039,1.176c2.386-0.336,4.877-1.315,7.464-2.915c2.591-1.604,5.186-3.869,7.778-6.803
		c2.329-2.638,4.423-5.792,6.31-9.408c-0.268-0.083-0.514-0.203-0.769-0.311C712.098,522.771,710.041,525.871,707.785,528.425z"/>
	<path fill="#EBBA36" d="M692.915,529.479c1.424-1.03,2.74-2.201,3.908-3.486c1.209-1.312,2.229-2.72,3.135-4.298
		c0.876-1.548,1.537-3.035,1.96-4.409c0.443-1.444,0.557-2.78,0.33-3.979c-0.253-1.301-1.047-2.3-2.348-2.918
		c-1.868-0.719-4.017,0.004-6.289,2.173c-2.156,2.044-3.818,5.324-4.94,9.757c-0.921,3.618-1.262,6.392-1.045,8.479l0.099,0.903
		l0.889-0.188C690.012,531.22,691.46,530.535,692.915,529.479z M689.468,522.519c1.088-4.3,2.658-7.42,4.706-9.364
		c2.043-1.943,3.857-2.608,5.428-1.995c1.019,0.479,1.637,1.247,1.843,2.307c0.2,1.061,0.099,2.252-0.312,3.577
		c-0.41,1.337-1.044,2.752-1.892,4.25c-0.856,1.5-1.857,2.879-3.023,4.146c-1.153,1.264-2.417,2.386-3.782,3.375
		c-1.366,0.994-2.691,1.627-3.986,1.896C688.236,528.725,688.581,526.003,689.468,522.519z"/>
	<path fill="#EBBA36" d="M686.944,515.391c0.086-0.16,0.14-0.352,0.228-0.508c1.21-2.198,2.644-3.997,4.263-5.347
		c1.572-1.328,3.305-2.184,5.146-2.532c0.505-0.094,1.014-0.14,1.512-0.14c1.274,0,2.556,0.312,3.814,0.942
		c1.523,0.731,2.53,1.744,3.072,3.094c0.559,1.396,0.729,2.927,0.512,4.548c-0.232,1.688-0.823,3.454-1.757,5.258
		c-0.942,1.817-2.177,3.569-3.666,5.198c-1.466,1.606-3.182,3.021-5.103,4.201c-1.885,1.174-3.892,1.963-5.959,2.35l-1.104,0.205
		l0.536,0.991c1.035,1.924,2.873,2.788,5.276,2.468c2.186-0.276,4.562-1.282,7.066-2.992c2.44-1.684,4.886-3.88,7.262-6.53
		c2.099-2.343,3.833-4.896,5.226-7.612c-0.112-0.059-0.245-0.082-0.355-0.145c-0.134-0.072-0.239-0.164-0.366-0.243
		c-1.354,2.653-3.047,5.146-5.116,7.451c-2.352,2.631-4.726,4.756-7.113,6.402c-2.39,1.63-4.623,2.59-6.702,2.854
		c-2.085,0.277-3.569-0.403-4.452-2.042c2.188-0.411,4.263-1.229,6.24-2.46c1.982-1.222,3.742-2.666,5.271-4.344
		c1.535-1.679,2.802-3.464,3.79-5.376c0.986-1.909,1.597-3.747,1.841-5.521c0.238-1.777,0.053-3.432-0.561-4.967
		c-0.617-1.534-1.78-2.711-3.481-3.525c-1.914-0.96-3.854-1.244-5.835-0.871c-1.979,0.377-3.82,1.272-5.523,2.714
		c-1.712,1.424-3.189,3.285-4.45,5.572c-0.76,1.368-1.344,2.876-1.843,4.452c0.287-0.44,0.571-0.922,0.844-1.485
		C685.987,516.393,686.463,515.743,686.944,515.391z"/>
	<path fill="#EBBA36" d="M684.829,521.287c-0.349,0.353-0.709,0.661-1.086,0.898c-0.003,0.011-0.005,0.018-0.008,0.025
		c-0.062,0.312-0.082,0.59-0.136,0.896c0.317-0.177,0.625-0.386,0.922-0.623c0.01-0.041,0.012-0.076,0.019-0.117
		C684.613,521.985,684.745,521.657,684.829,521.287z"/>
	<path fill="#EBBA36" d="M686.944,515.391c-0.481,0.354-0.957,1.002-1.493,2.062c-0.271,0.563-0.557,1.044-0.844,1.484
		c-0.196,0.627-0.358,1.282-0.518,1.942c0.444-0.422,0.867-0.957,1.274-1.598C685.8,517.9,686.318,516.596,686.944,515.391z"/>
	<path fill="#EBBA36" d="M684.35,523.651c-0.285,0.178-0.591,0.309-0.896,0.438c-0.043,0.323-0.111,0.671-0.146,0.983
		c0.312-0.11,0.601-0.289,0.896-0.44C684.242,524.317,684.298,523.979,684.35,523.651z"/>
	<path fill="#EBBA36" d="M684.521,522.483c-0.296,0.237-0.604,0.446-0.921,0.622c-0.054,0.332-0.103,0.663-0.146,0.984
		c0.305-0.133,0.607-0.263,0.896-0.438C684.409,523.261,684.447,522.89,684.521,522.483z"/>
	<path fill="#EBBA36" d="M684.829,521.287c0.161-0.684,0.334-1.356,0.537-2.004c-0.407,0.641-0.83,1.177-1.274,1.598
		c-0.106,0.442-0.261,0.846-0.349,1.307C684.12,521.948,684.481,521.639,684.829,521.287z"/>
	<path fill="#EBBA36" d="M713.679,515.388c0.189-0.131,0.386-0.187,0.58-0.257l-0.077-0.104c-0.312-0.424-0.469-1.034-0.469-1.873
		c0-0.705,0.057-1.389,0.164-2.033c0.125-0.729,0.373-1.381,0.741-1.946c0.569-0.896,1.271-1.082,1.757-1.082h0.371l0.32,0.312
		c0.294,0.334,0.305,0.791,0.228,1.378c-0.067,0.535-0.213,1.149-0.438,1.879c-0.202,0.661-0.437,1.309-0.677,1.943
		c-0.354,0.897-0.544,1.224-0.654,1.392l-0.034,0.057c0.202,0.071,0.474,0.235,0.707,0.536l0.185-0.327
		c1.626-2.854,2.412-5.024,2.346-6.465c-0.049-1.198-0.514-1.729-1.603-1.831c-1.207-0.115-2.225,0.216-3.105,1.02
		c-0.944,0.854-1.649,1.911-2.09,3.145c-0.423,1.229-0.495,2.44-0.222,3.696c0.156,0.717,0.484,1.298,0.954,1.784
		C712.941,516.093,713.267,515.658,713.679,515.388z"/>
	<path fill="#EBBA36" d="M728.913,536.972c1.014-0.821,2.079-1.885,3.162-3.164c1.079-1.266,2.146-2.668,3.272-4.286
		c1.086-1.562,2.103-3.087,3.06-4.58c0.947-1.487,1.759-2.805,2.442-3.966c0.66-1.129,1.096-1.898,1.295-2.3
		c0.296-0.601,0.478-1.132,0.534-1.589c0.009-0.047,0.012-0.09,0.015-0.133c-0.198,0.222-0.479,0.579-0.85,1.184
		c-0.534,0.938-1.428,2.432-2.66,4.45c-1.215,1.988-2.562,4.05-4.014,6.132c-1.484,2.107-2.921,3.925-4.271,5.4
		c-1.519,1.677-2.62,2.425-3.58,2.425c-0.491-0.005-0.842-0.157-1.092-0.438c-0.357-0.399-0.479-0.993-0.377-1.862
		c0.097-0.946,0.373-2.139,0.85-3.629c0.454-1.428,1.048-3.031,1.762-4.774c0.724-1.748,1.478-3.484,2.271-5.198
		c0.818-1.783,1.598-3.369,2.373-4.846c0.78-1.513,1.451-2.744,2.002-3.709c0.913-1.532,1.216-2.734,0.904-3.587
		c-0.242-0.671-0.914-1.201-1.996-1.581c-1.043-0.254-2.063-0.284-2.744-0.013c-0.742,0.304-1.442,0.789-2.069,1.443
		c-0.684,0.713-1.321,1.528-1.89,2.43c-0.664,1.021-1.447,1.967-2.337,2.812c-0.901,0.875-1.992,1.615-3.235,2.2
		c-1.272,0.602-2.847,0.828-4.704,0.688l-0.475-0.036c0.006,0.022,0.016,0.039,0.018,0.062c0.078,0.507-0.06,1.089-0.313,1.729
		c0.421,0.074,0.825,0.172,1.281,0.191c1.467,0.065,2.911-0.084,4.314-0.438c1.366-0.354,2.646-0.904,3.802-1.643
		c0.993-0.63,1.773-1.356,2.321-2.162l0.189-0.299l1.396,0.869c-0.07,0.115-0.145,0.229-0.221,0.343
		c-1.69,2.674-3.009,5.4-3.897,8.092c-0.93,2.763-1.469,5.31-1.601,7.566c-0.128,2.166,0.105,3.969,0.702,5.356
		c0.688,1.593,1.59,1.819,2.202,1.853l0.138,0.811h0.004v-0.806C727.252,537.971,727.886,537.798,728.913,536.972z"/>
	<path fill="#EBBA36" d="M714.595,516.751c-0.219,0.146-0.407,0.423-0.581,0.772c0.215,0.107,0.447,0.184,0.672,0.271
		c0.25-0.559,0.289-0.898,0.271-1.039C714.921,516.596,714.812,516.606,714.595,516.751z"/>
	<path fill="#EBBA36" d="M715.488,515.05l-0.511,0.761c0.075,0.004,0.155-0.019,0.227,0.006c0.31,0.104,0.494,0.377,0.562,0.817
		c0.062,0.393-0.065,0.891-0.316,1.465c0.255,0.073,0.546,0.092,0.814,0.138c0.256-0.641,0.395-1.223,0.314-1.729
		c-0.002-0.021-0.012-0.038-0.019-0.062l-0.818-0.062l0.454-0.799C715.962,515.286,715.691,515.122,715.488,515.05z"/>
	<path fill="#EBBA36" d="M714.131,516.074c0.225-0.153,0.432-0.234,0.627-0.271l-0.499-0.673c-0.194,0.07-0.391,0.126-0.58,0.257
		c-0.412,0.271-0.736,0.705-1.019,1.22c0.186,0.192,0.397,0.37,0.637,0.529C713.537,516.664,713.806,516.288,714.131,516.074z"/>
	<path fill="#EBBA36" d="M714.014,517.523c0.174-0.352,0.362-0.629,0.581-0.772c0.217-0.145,0.326-0.154,0.361,0.005
		c0.019,0.142-0.021,0.48-0.271,1.039c0.253,0.1,0.492,0.231,0.764,0.305c0.251-0.574,0.378-1.072,0.316-1.465
		c-0.065-0.44-0.252-0.714-0.562-0.817c-0.069-0.021-0.149-0.002-0.227-0.005l-0.104,0.154l-0.118-0.162
		c-0.196,0.035-0.403,0.116-0.627,0.271c-0.325,0.214-0.594,0.59-0.834,1.062c0.132,0.086,0.252,0.183,0.396,0.26
		C713.793,517.452,713.911,517.472,714.014,517.523z"/>
	<path fill="#EBBA36" d="M715.41,513.308c0.233-0.611,0.459-1.248,0.66-1.894c0.199-0.646,0.344-1.229,0.406-1.743
		c0.067-0.51,0.035-0.76-0.104-0.76c-0.408,0-0.768,0.233-1.067,0.707c-0.312,0.481-0.517,1.027-0.619,1.639
		c-0.104,0.615-0.151,1.255-0.151,1.896c0,0.649,0.104,1.113,0.305,1.384C714.977,514.333,715.168,513.924,715.41,513.308z"/>
	<path fill="#EBBA36" d="M742.075,515.331c-0.496,0.325-1.027,0.966-1.646,1.971c-0.544,0.949-1.427,2.432-2.647,4.431
		c-1.197,1.958-2.528,3.994-3.957,6.046c-1.439,2.047-2.833,3.812-4.141,5.236c-1.228,1.352-1.885,1.737-2.224,1.845
		c-0.006-0.102,0-0.239,0.021-0.438c0.087-0.847,0.34-1.93,0.775-3.312c0.445-1.38,1.022-2.94,1.72-4.645
		c0.712-1.725,1.457-3.439,2.244-5.133c0.809-1.761,1.57-3.324,2.337-4.777c0.774-1.491,1.434-2.708,1.968-3.645
		c1.184-1.988,1.521-3.616,1.024-4.976c-0.418-1.154-1.424-2.017-3.064-2.59c-1.538-0.383-2.815-0.371-3.832,0.036
		c-0.964,0.393-1.854,1.01-2.643,1.831c-0.759,0.791-1.461,1.692-2.085,2.676c-0.602,0.921-1.285,1.744-2.095,2.519
		c-0.776,0.752-1.719,1.393-2.796,1.899c-0.718,0.337-1.579,0.528-2.575,0.563c1.352-2.586,1.973-4.606,1.901-6.148
		c-0.081-2.008-1.182-3.215-3.089-3.396c-1.673-0.158-3.144,0.327-4.358,1.436c-1.154,1.037-2.008,2.321-2.542,3.819
		c-0.519,1.511-0.611,3.057-0.275,4.597c0.267,1.209,0.859,2.198,1.762,2.956c0.132-0.26,0.27-0.511,0.395-0.771
		c-0.679-0.622-1.142-1.399-1.354-2.361c-0.309-1.402-0.22-2.785,0.252-4.149c0.482-1.357,1.253-2.525,2.311-3.478
		c1.053-0.955,2.301-1.364,3.735-1.231c1.497,0.146,2.279,1.008,2.345,2.617c0.075,1.6-0.74,3.902-2.447,6.907
		c1.707,0.13,3.134-0.068,4.292-0.615c1.159-0.544,2.167-1.229,3.021-2.052c0.854-0.816,1.587-1.701,2.208-2.662
		c0.604-0.948,1.272-1.807,1.988-2.555c0.721-0.748,1.502-1.29,2.359-1.643c0.849-0.34,1.955-0.34,3.322,0
		c2.925,1.027,3.439,3.144,1.531,6.35c-0.548,0.959-1.211,2.186-1.987,3.688c-0.788,1.496-1.571,3.104-2.356,4.811
		c-0.788,1.703-1.537,3.431-2.254,5.164c-0.718,1.747-1.296,3.312-1.741,4.71c-0.442,1.397-0.721,2.556-0.812,3.479
		c-0.108,0.919,0.083,1.378,0.553,1.378c0.688,0.075,1.708-0.646,3.074-2.15c1.368-1.491,2.767-3.271,4.201-5.314
		c1.429-2.055,2.76-4.08,3.986-6.091c1.229-2.009,2.115-3.496,2.662-4.449c0.544-0.895,1.006-1.443,1.38-1.691
		c0.368-0.238,0.647-0.238,0.817,0c0.171,0.248,0.22,0.635,0.152,1.176c-0.072,0.554-0.276,1.164-0.614,1.843
		c-0.203,0.411-0.646,1.198-1.323,2.357c-0.688,1.166-1.506,2.491-2.46,3.99c-0.962,1.503-1.982,3.037-3.076,4.604
		c-1.089,1.571-2.188,3.023-3.315,4.351c-1.138,1.333-2.226,2.42-3.276,3.271c-0.982,0.793-1.821,1.169-2.533,1.166v0.02
		l-0.003-0.02c-0.057,0-0.121,0.018-0.176,0.011c-1.3-0.062-2.272-0.852-2.919-2.348c-0.646-1.501-0.906-3.412-0.769-5.73
		c0.135-2.322,0.678-4.913,1.643-7.775c0.947-2.87,2.348-5.737,4.189-8.599c-0.608,1.02-1.537,1.934-2.76,2.708
		c-1.229,0.786-2.582,1.371-4.043,1.746c-1.471,0.372-2.986,0.525-4.55,0.459c-0.562-0.023-1.068-0.137-1.585-0.234
		c-0.129,0.261-0.271,0.505-0.402,0.764c0.63,0.139,1.268,0.262,1.95,0.293c1.631,0.078,3.231-0.09,4.792-0.483
		c1.219-0.314,2.374-0.77,3.451-1.356c-0.728,1.482-1.337,2.966-1.824,4.44c-0.976,2.9-1.543,5.589-1.683,7.992
		c-0.146,2.422,0.135,4.474,0.83,6.104c0.977,2.249,2.517,2.785,3.598,2.838l0.258,0.015c0.913,0,1.911-0.447,3.049-1.366
		c1.095-0.886,2.234-2.022,3.387-3.38c1.107-1.304,2.214-2.744,3.367-4.412c1.102-1.578,2.124-3.121,3.095-4.634
		c0.963-1.507,1.781-2.84,2.479-4.02c0.691-1.183,1.141-1.985,1.346-2.404c0.383-0.766,0.609-1.451,0.694-2.104
		c0.093-0.753-0.003-1.324-0.299-1.759C743.592,514.954,742.844,514.838,742.075,515.331z"/>
	<path fill="#EBBA36" d="M713.267,518.983c0.217,0.105,0.448,0.178,0.674,0.27c0.127-0.241,0.259-0.479,0.383-0.723
		c-0.229-0.096-0.466-0.166-0.686-0.274C713.519,518.501,713.391,518.742,713.267,518.983z"/>
	<path fill="#EBBA36" d="M712.544,518.597c0.124-0.245,0.256-0.483,0.375-0.731c-0.238-0.153-0.465-0.319-0.663-0.503
		c-0.125,0.262-0.263,0.513-0.395,0.771C712.066,518.306,712.307,518.448,712.544,518.597z"/>
	<path fill="#EBBA36" d="M715.09,518.836c-0.126,0.249-0.258,0.48-0.384,0.727c0.266,0.082,0.539,0.148,0.817,0.213
		c0.132-0.26,0.271-0.504,0.4-0.765C715.646,518.953,715.356,518.913,715.09,518.836z"/>
	<path fill="#EBBA36" d="M713.939,519.251c0.256,0.106,0.501,0.229,0.768,0.312c0.126-0.244,0.258-0.479,0.384-0.728
		c-0.271-0.077-0.513-0.204-0.769-0.306C714.197,518.774,714.066,519.011,713.939,519.251z"/>
	<path fill="#EBBA36" d="M713.267,518.983c0.124-0.241,0.253-0.481,0.371-0.729c-0.104-0.053-0.226-0.076-0.33-0.133
		c-0.143-0.076-0.258-0.173-0.389-0.259c-0.119,0.248-0.251,0.486-0.375,0.731c0.127,0.079,0.231,0.171,0.366,0.243
		C713.021,518.901,713.153,518.926,713.267,518.983z"/>
	<path fill="#EBBA36" d="M724.553,536.114c-0.596-1.39-0.83-3.19-0.702-5.356c0.133-2.259,0.671-4.806,1.602-7.566
		c0.891-2.689,2.207-5.418,3.896-8.092c0.077-0.112,0.149-0.228,0.221-0.343l-1.395-0.869l-0.189,0.299
		c-0.549,0.806-1.328,1.532-2.321,2.162c-1.155,0.737-2.437,1.289-3.802,1.643c-1.403,0.354-2.851,0.505-4.314,0.438
		c-0.456-0.021-0.861-0.117-1.282-0.191c-0.062,0.153-0.088,0.291-0.17,0.457c-0.055,0.107-0.111,0.209-0.168,0.317
		c0.519,0.101,1.024,0.211,1.585,0.235c1.563,0.065,3.079-0.087,4.55-0.459c1.461-0.376,2.812-0.96,4.043-1.746
		c1.225-0.775,2.149-1.689,2.762-2.709c-1.846,2.86-3.242,5.729-4.191,8.599c-0.965,2.863-1.507,5.453-1.641,7.776
		c-0.142,2.318,0.123,4.229,0.767,5.729c0.646,1.496,1.619,2.284,2.919,2.349c0.057,0.007,0.119-0.011,0.177-0.011l-0.138-0.811
		C726.143,537.935,725.242,537.708,724.553,536.114z"/>
	<path fill="#EBBA36" d="M712.66,516.606c-0.469-0.486-0.798-1.068-0.954-1.784c-0.273-1.256-0.201-2.469,0.222-3.696
		c0.438-1.232,1.146-2.29,2.09-3.145c0.884-0.804,1.898-1.135,3.105-1.02c1.089,0.104,1.554,0.633,1.603,1.831
		c0.066,1.438-0.72,3.61-2.346,6.465l-0.185,0.327c0.158,0.209,0.296,0.48,0.364,0.858l0.476,0.035
		c1.856,0.141,3.432-0.088,4.704-0.688c1.243-0.585,2.334-1.326,3.234-2.201c0.891-0.847,1.672-1.79,2.337-2.812
		c0.567-0.899,1.206-1.718,1.891-2.43c0.627-0.654,1.327-1.142,2.068-1.443c0.682-0.271,1.702-0.241,2.744,0.013
		c1.083,0.38,1.754,0.91,1.997,1.582c0.312,0.851,0.008,2.054-0.906,3.586c-0.549,0.965-1.22,2.196-2,3.709
		c-0.775,1.477-1.555,3.062-2.375,4.846c-0.794,1.714-1.548,3.45-2.271,5.198c-0.714,1.744-1.308,3.349-1.762,4.774
		c-0.477,1.49-0.753,2.683-0.85,3.629c-0.102,0.869,0.02,1.464,0.376,1.862c0.25,0.281,0.602,0.436,1.091,0.438
		c0.961,0,2.063-0.748,3.581-2.425c1.354-1.478,2.788-3.293,4.272-5.4c1.45-2.082,2.799-4.144,4.014-6.132
		c1.232-2.021,2.126-3.513,2.66-4.45c0.369-0.604,0.649-0.962,0.849-1.184c-0.003,0.043-0.005,0.087-0.014,0.133
		c-0.059,0.457-0.239,0.988-0.535,1.589c-0.2,0.399-0.634,1.171-1.294,2.3c-0.686,1.161-1.496,2.479-2.442,3.966
		c-0.957,1.493-1.974,3.021-3.06,4.58c-1.128,1.618-2.193,3.021-3.272,4.286c-1.083,1.279-2.148,2.343-3.162,3.164
		c-1.027,0.826-1.661,0.999-2.02,0.999v0.806c0.712,0.003,1.552-0.373,2.533-1.166c1.053-0.852,2.142-1.938,3.276-3.271
		c1.128-1.325,2.229-2.778,3.315-4.351c1.095-1.566,2.114-3.103,3.076-4.604c0.954-1.499,1.771-2.825,2.46-3.991
		c0.68-1.158,1.12-1.945,1.323-2.357c0.338-0.678,0.542-1.288,0.614-1.842c0.065-0.541,0.019-0.929-0.152-1.177
		c-0.17-0.237-0.449-0.237-0.816,0c-0.374,0.248-0.837,0.8-1.381,1.692c-0.547,0.952-1.435,2.44-2.661,4.449
		c-1.229,2.011-2.561,4.036-3.987,6.091c-1.437,2.044-2.833,3.823-4.201,5.313c-1.366,1.507-2.388,2.229-3.074,2.151
		c-0.47,0-0.661-0.459-0.553-1.378c0.093-0.925,0.369-2.08,0.812-3.479c0.444-1.398,1.022-2.964,1.74-4.711
		c0.718-1.732,1.467-3.461,2.255-5.163c0.784-1.707,1.567-3.312,2.355-4.811c0.778-1.503,1.44-2.729,1.987-3.688
		c1.909-3.206,1.394-5.32-1.531-6.35c-1.367-0.34-2.475-0.34-3.322,0c-0.856,0.353-1.641,0.895-2.358,1.643
		c-0.717,0.748-1.388,1.604-1.989,2.555c-0.621,0.961-1.354,1.846-2.208,2.661c-0.854,0.82-1.86,1.509-3.021,2.053
		c-1.157,0.547-2.585,0.745-4.292,0.614c1.707-3.004,2.522-5.31,2.447-6.906c-0.062-1.61-0.848-2.473-2.345-2.617
		c-1.437-0.133-2.685,0.275-3.735,1.23c-1.058,0.951-1.826,2.119-2.311,3.479c-0.471,1.364-0.561,2.747-0.251,4.148
		c0.211,0.962,0.674,1.74,1.353,2.362c0.033-0.066,0.074-0.135,0.104-0.204C712.443,516.946,712.56,516.787,712.66,516.606z"/>
	<path fill="#EBBA36" d="M715.46,515.036c0.008,0.004,0.019,0.012,0.028,0.015l0.034-0.057c0.11-0.168,0.301-0.492,0.654-1.393
		c0.24-0.636,0.475-1.281,0.677-1.942c0.228-0.729,0.371-1.344,0.438-1.879c0.077-0.587,0.066-1.044-0.229-1.378l-0.319-0.312
		h-0.371c-0.484,0-1.188,0.188-1.757,1.082c-0.368,0.565-0.616,1.22-0.741,1.946c-0.106,0.646-0.164,1.328-0.164,2.033
		c0,0.839,0.155,1.449,0.469,1.873l0.077,0.104C714.67,514.977,715.08,514.908,715.46,515.036z M714.688,511.257
		c0.104-0.608,0.309-1.155,0.619-1.639c0.304-0.474,0.659-0.707,1.067-0.707c0.139,0,0.171,0.25,0.104,0.76
		c-0.063,0.517-0.207,1.097-0.407,1.743c-0.201,0.646-0.427,1.28-0.66,1.894c-0.242,0.616-0.435,1.024-0.57,1.229
		c-0.201-0.271-0.305-0.732-0.305-1.384C714.535,512.512,714.585,511.873,714.688,511.257z"/>
	<path fill="#EBBA36" d="M713.868,517.808c-0.069,0.152-0.155,0.296-0.23,0.447c0.221,0.108,0.457,0.181,0.686,0.274
		c0.099-0.192,0.204-0.372,0.3-0.567c0.036-0.072,0.033-0.104,0.062-0.168c-0.225-0.088-0.457-0.162-0.672-0.271
		C713.966,517.623,713.914,517.694,713.868,517.808z"/>
	<path fill="#EBBA36" d="M715.46,515.036c-0.38-0.128-0.79-0.061-1.201,0.096l0.499,0.673c0.077-0.015,0.149,0.003,0.223,0.008
		l0.51-0.762C715.479,515.047,715.468,515.04,715.46,515.036z"/>
	<path fill="#EBBA36" d="M712.919,517.864c0.06-0.122,0.128-0.237,0.185-0.36c0.059-0.145,0.134-0.243,0.193-0.366
		c-0.237-0.159-0.451-0.337-0.637-0.529c-0.103,0.181-0.217,0.34-0.301,0.551c-0.029,0.069-0.07,0.138-0.104,0.204
		C712.454,517.544,712.681,517.71,712.919,517.864z"/>
	<path fill="#EBBA36" d="M716.562,516.445c-0.069-0.378-0.207-0.649-0.365-0.858l-0.454,0.798L716.562,516.445z"/>
	<path fill="#EBBA36" d="M716.264,518.235c-0.271-0.046-0.562-0.062-0.814-0.138c-0.037,0.08-0.047,0.146-0.091,0.229
		c-0.087,0.175-0.181,0.336-0.269,0.511c0.269,0.076,0.559,0.116,0.836,0.175c0.055-0.108,0.113-0.21,0.168-0.317
		C716.176,518.526,716.201,518.39,716.264,518.235z"/>
	<path fill="#EBBA36" d="M715.447,518.099c-0.271-0.071-0.51-0.205-0.764-0.305c-0.029,0.064-0.026,0.096-0.062,0.168
		c-0.097,0.195-0.201,0.375-0.3,0.567c0.256,0.102,0.497,0.229,0.769,0.307c0.088-0.175,0.182-0.335,0.269-0.511
		C715.4,518.244,715.41,518.179,715.447,518.099z"/>
	<path fill="#EBBA36" d="M713.638,518.255c0.075-0.151,0.161-0.295,0.23-0.447c0.046-0.112,0.098-0.186,0.146-0.283
		c-0.103-0.053-0.221-0.071-0.319-0.128c-0.146-0.077-0.266-0.174-0.396-0.26c-0.062,0.123-0.137,0.224-0.192,0.366
		c-0.058,0.123-0.127,0.238-0.186,0.36c0.131,0.086,0.246,0.183,0.389,0.259C713.412,518.179,713.532,518.203,713.638,518.255z"/>
	<path fill="#EBBA36" d="M714.876,515.966l0.104-0.155c-0.071-0.004-0.146-0.021-0.223-0.007L714.876,515.966z"/>
</g>
<path fill="#EBBA36" d="M75.929,472.339h0.204c-0.068-0.039-0.136-0.078-0.204-0.117V472.339z"/>
<g>
	<defs>
		<rect id="SVGID_1_" x="75.929" y="142.141" width="667.96" height="330.196"/>
	</defs>
	<clipPath id="SVGID_2_">
		<use xlink:href="#SVGID_1_"  overflow="visible"/>
	</clipPath>
	<path clip-path="url(#SVGID_2_)" fill="#EBBA36" d="M115.375,463.568l0.003-0.01c6.218,1.396,13.015,2.208,20.376,2.419
		c1.044,0.037,2.037,0.056,3.021,0.056c13.963,0,26.492-3.633,37.237-10.796c11.906-7.942,22.417-18.889,31.236-32.528
		c9.024-13.958,16.838-30.235,23.221-48.377c6.455-18.363,12.219-37.848,17.135-57.91c4.942-20.231,9.264-40.458,12.843-60.113
		c3.822-20.903,7.196-39.057,10.314-55.505c3.223-16.999,6.578-31.985,9.971-44.54c3.692-13.655,8.186-22.993,13.736-28.55
		c0.077-0.075,0.153-0.148,0.231-0.22c1.933-1.753,3.993-3.255,6.163-4.504H75.929v319.511
		C85.142,452.358,97.912,459.875,115.375,463.568z M99.411,351.76c1.622-9.21,4.396-17.454,8.233-24.438
		c3.86-6.999,8.191-12.804,12.878-17.256c4.793-4.543,9.92-7.891,15.239-9.95c5.445-2.098,10.678-2.904,15.567-2.398
		c5.18,0.541,9.624,2.57,13.209,6.037c1.175,1.124,2.215,2.392,3.12,3.8c1.957-5.04,4.79-8.132,8.432-9.202
		c3.843-1.124,7.472-0.427,10.53,1.982c2.753,2.161,4.71,5.478,5.811,9.852c1.095,4.412,0.448,9.181-1.921,14.183
		c-1.068,2.146-2.634,5.445-4.82,10.15c-2.082,4.486-4.183,9.466-6.244,14.792c-2.147,5.533-4.27,11.178-6.312,16.778
		c-2.038,5.541-3.685,10.756-4.904,15.508c-1.143,4.452-1.721,8.183-1.721,11.083c0,0.644,0.043,1.104,0.095,1.417
		c0.354-0.192,0.987-0.62,1.91-1.541c2.083-2.084,4.419-4.95,6.937-8.52c2.593-3.673,5.29-7.718,8.244-12.363
		c2.846-4.497,5.566-9.001,8.083-13.381c2.673-4.651,4.892-8.649,6.778-12.226c2.071-3.914,3.752-6.824,5.135-8.896
		c2.093-3.657,3.894-5.886,5.66-7.015c2.891-1.864,6.042-1.361,7.703,0.981c1.113,1.562,1.494,3.715,1.163,6.577
		c-0.295,2.382-1.103,4.778-2.409,7.149c-0.674,1.337-1.986,3.85-4.01,7.672c-1.879,3.568-4.252,7.816-7.254,12.979
		c-2.636,4.562-5.598,9.503-9.046,15.103c-3.303,5.354-6.694,10.291-10.081,14.671c-3.501,4.552-6.989,8.331-10.36,11.229
		c-3.95,3.403-7.523,5.062-10.922,5.062c-4.045,0-7.458-1.21-10.147-3.598c-1.399-1.252-2.561-2.875-3.502-4.904
		c-1.999,1.765-4.218,3.294-6.641,4.572c-4.493,2.365-9.223,3.687-14.065,3.926c-0.512,0.024-1.028,0.038-1.541,0.038
		c-4.411,0-8.702-0.975-12.751-2.896c-4.635-2.178-8.537-5.796-11.583-10.749c-2.942-4.79-4.966-11.111-6.021-18.796
		C96.829,371.609,97.341,362.384,99.411,351.76z"/>
	<path clip-path="url(#SVGID_2_)" fill="#EBBA36" d="M123.573,392.727c1.837,2.956,3.684,3.477,4.913,3.608
		c2.28,0.243,4.718-0.374,7.245-1.85c2.797-1.64,5.47-4.08,7.942-7.254c2.399-3.063,4.116-6.655,5.109-10.684
		c0.471-4.787,1.386-10.136,2.724-15.902c1.308-5.683,2.944-12.015,5.002-19.354c1.117-6.28,0.548-11.289-1.694-14.887
		c-2.673-4.266-5.578-4.761-7.53-4.761l-0.242,0.005c-3.486,0.087-7.473,2.593-11.848,7.445c-4.683,5.17-8.547,14.105-11.492,26.566
		c-2.355,10.035-3.391,18.219-3.081,24.316C120.926,385.779,121.918,390.069,123.573,392.727z"/>
	<path clip-path="url(#SVGID_2_)" fill="#EBBA36" d="M333.515,127.176c2.075,2.874,4.198,7.815,2.653,15.167
		c-3.169,17.577-5.797,36.261-7.805,55.531c-2.014,19.217-3.479,38.851-4.353,58.362c-0.864,19.305-1.083,38.475-0.648,56.979
		c0.422,18.397,1.443,35.857,3.033,51.9c1.046,10.546,2.384,20.439,3.998,29.562c0.185-1.449,0.382-2.919,0.596-4.417
		c3.092-21.663,8.684-46.879,16.622-74.94c7.895-27.926,17.902-58.323,29.742-90.347c11.875-32.097,24.822-64.716,38.477-96.953
		c0.027-0.069,0.059-0.138,0.09-0.206c0.922-1.981,1.975-3.556,3.088-4.825h-89.564
		C330.969,124.164,332.334,125.552,333.515,127.176z"/>
	<path clip-path="url(#SVGID_2_)" fill="#EBBA36" d="M688.48,422.791c-11.188,6.906-22.097,11.163-32.421,12.65
		c-2.418,0.344-4.778,0.52-7.022,0.52c-7.469,0-14.066-1.934-19.607-5.748c-7.205-4.955-12.364-13.053-15.338-24.068
		c-0.562-2.096-1.014-4.316-1.352-6.656c-3.482,5.832-7.015,11.357-10.521,16.418c-3.949,5.718-7.981,10.498-11.985,14.208
		c-4.142,3.829-8,5.769-11.474,5.769c-8.18,0-13.266-5.838-15.113-17.354c-0.868-5.468-1.178-11.806-0.934-18.959
		c-3.467,5.802-6.975,11.3-10.459,16.335c-3.957,5.718-7.992,10.498-11.994,14.209c-4.135,3.829-7.998,5.769-11.481,5.769
		c-8.175,0-13.255-5.838-15.103-17.354c-1.682-10.566-1.272-24.371,1.197-41.046c-0.768,0.647-1.539,1.271-2.316,1.852
		c-7.932,5.908-15.776,9.276-23.328,10.019c-2.612,6.834-5.883,13.25-9.727,19.079c-3.998,6.068-8.719,11.315-14.037,15.598
		c-5.354,4.308-11.219,7.54-17.436,9.609c-4.39,1.461-9.064,2.202-13.896,2.203c-2.055,0-4.178-0.135-6.311-0.399
		c-12.545-1.795-22.004-6.884-28.135-15.125c-6.081-8.16-9.618-17.862-10.515-28.834c-0.881-10.871,0.383-22.504,3.76-34.576
		c3.393-12.054,8.457-23.145,15.055-32.963c6.633-9.88,14.639-17.732,23.793-23.344c9.231-5.664,19.377-7.632,30.106-5.84
		c8.384,1.495,15.293,4.992,20.556,10.392c5.205,5.366,9.051,12.004,11.43,19.73c2.363,7.688,3.484,16.134,3.338,25.104
		c-0.141,8.389-1.26,16.818-3.326,25.086c4.554-1.145,9.332-3.888,14.234-8.167c3.625-3.155,7.334-7.419,11.082-12.726
		c2.67-12.22,6.111-25.39,10.291-39.368c6.555-21.951,14.615-44.479,23.965-66.987h-34.76c-0.972,0-1.56-0.419-1.883-0.771
		c-0.609-0.662-0.851-1.654-0.734-3.033c0.166-1.974,1.207-4.166,3.09-6.516c1.83-2.29,4.447-4.374,7.777-6.194
		c3.35-1.83,7.651-2.757,12.791-2.757h22.096c6.019-13.439,12.414-26.662,19.021-39.311c3.075-5.825,6.713-9.254,10.812-10.195
		c4.107-0.953,7.695-0.211,10.578,2.187c2.816,2.355,4.711,5.959,5.633,10.716c0.92,4.756-0.151,9.943-3.188,15.417
		c-2.283,3.703-4.408,7.442-6.341,11.155c-1.561,2.998-3.225,6.146-5.063,9.583c4.195-0.015,8.502-0.09,12.832-0.219
		c2.065-0.056,4.076-0.098,6.053-0.13c5.898-13.13,12.172-26.083,18.666-38.515c3.07-5.824,6.701-9.253,10.797-10.194
		c4.109-0.954,7.699-0.21,10.59,2.187c2.812,2.355,4.703,5.959,5.632,10.714c0.916,4.76-0.154,9.947-3.183,15.419
		c-2.336,3.788-4.461,7.526-6.344,11.154c-1.582,3.038-3.248,6.186-5.062,9.579c0.003,0.002,0.005,0.003,0.009,0.005
		c4.188-0.017,8.491-0.09,12.817-0.219c5.131-0.138,10.011-0.208,14.502-0.208c4.724,0,8.506-0.072,11.566-0.222
		c3.104-0.145,5.244-0.22,6.186-0.22c0.359-0.037,0.793-0.057,1.199-0.057c3.779,0,4.99,1.798,5.338,3.306
		c0.51,2.205-0.137,4.632-1.918,7.216c-1.697,2.469-4.315,4.789-7.783,6.897c-3.516,2.141-7.612,3.226-12.178,3.226H633.36
		c-10.005,21.183-19.037,42.402-26.854,63.079c-7.832,20.75-14.086,39.596-18.594,56.014c-4.506,16.409-7.369,29.775-8.517,39.729
		c-1.141,9.794-0.049,12.674,0.705,13.52c0.24,0.271,0.5,0.394,0.843,0.394c1.75,0,4.998-1.597,10.521-9.2
		c4.635-6.375,9.328-13.93,13.949-22.454c2.51-4.623,4.971-9.288,7.375-13.956c0.414-3.634,0.979-7.417,1.719-11.363
		c2.344-12.312,6.291-23.555,11.729-33.421c5.459-9.881,11.961-18.023,19.327-24.205c7.41-6.225,15.541-10.213,24.166-11.853
		c8.679-1.639,17.32-0.349,25.679,3.831c7.5,3.59,12.692,8.874,15.426,15.689c2.691,6.727,3.523,14.062,2.475,21.81
		c-1.024,7.656-3.715,15.737-7.992,24.021c-4.266,8.243-9.78,16.065-16.385,23.252c-6.604,7.191-14.276,13.523-22.807,18.819
		c-8.105,5.024-16.711,8.509-25.605,10.367c3.078,4.814,7.576,7.159,13.705,7.159c1.115,0,2.299-0.079,3.521-0.238
		c8.664-1.13,18.164-5.197,28.235-12.094c10.117-6.937,20.302-16.099,30.271-27.23c9.959-11.108,18.084-23.333,24.15-36.335
		c0.938-2.358,2.113-4.22,3.487-5.541V122.99H442.835c0.984,0.757,1.947,1.583,2.88,2.51c3.848,3.855,6.916,8.657,9.135,14.29
		c3.248,8.213,1.554,14.469-0.475,18.299c-10.998,22.271-22.004,45.9-32.713,70.232c-10.76,24.418-20.676,48.501-29.471,71.583
		c-8.833,23.169-16.536,45.03-22.896,64.976c-6.267,19.624-10.311,36.202-12.018,49.277c-0.006,0.051-0.013,0.101-0.021,0.15
		c-1.106,7.16-1.525,14.712-1.247,22.443c0.242,6.816,1.216,11.011,2.218,13.563c1.54,0.969,2.654,2.568,2.964,4.475
		c0.512,3.156-1.34,6.219-4.375,7.229c-3.065,1.021-6.131,1.539-9.113,1.539c-8.921,0-17.034-4.469-24.113-13.283
		c-8.258-10.29-15.224-25.375-20.703-44.84c-5.344-18.995-9.323-42.171-11.824-68.883c-0.906-9.625-1.592-19.579-2.056-29.827
		c-4.269,17.153-9.345,34.247-15.104,50.856c-6.046,17.407-13.175,34.135-21.19,49.725c-8.139,15.819-17.853,29.812-28.871,41.588
		c-8.726,9.317-18.584,17.17-29.396,23.444H743.89V362.76c-6.7,11.522-14.016,21.803-21.852,30.675
		C710.895,406.037,699.604,415.914,688.48,422.791z"/>
	<path clip-path="url(#SVGID_2_)" fill="#EBBA36" d="M449.713,357.488c-3.254-11.771-2.1-25.185,3.432-39.865
		c-4.813,0.493-9.413,2.785-13.698,6.831c-5,4.711-9.5,10.812-13.379,18.134c-3.879,7.322-6.943,15.427-9.107,24.084
		c-2.162,8.652-3.186,16.963-3.037,24.703c0.137,7.704,1.437,14.498,3.861,20.195c2.35,5.554,6.178,8.785,11.703,9.881
		c4.143,0.837,8.028,0.422,11.61-1.232c3.648-1.689,7.066-4.327,10.158-7.835c3.137-3.57,6.111-8.002,8.842-13.169
		c2.613-4.958,4.793-10.24,6.482-15.707C458.562,377.822,452.889,369.072,449.713,357.488z"/>
	<path clip-path="url(#SVGID_2_)" fill="#EBBA36" d="M668.258,376.854c4.867-5.298,9.17-11.205,12.785-17.56
		c3.605-6.346,6.303-12.393,8.018-17.973c1.693-5.497,2.127-10.48,1.287-14.813c-0.811-4.203-3.192-7.176-7.285-9.088
		c-1.416-0.551-2.973-0.844-4.559-0.844c-5.166,0-11.043,3.094-17.467,9.195c-8.584,8.159-15.266,21.479-19.859,39.591
		c-3.565,14.01-5.065,25.257-4.465,33.461c4.988-1.248,10.191-3.816,15.484-7.651C657.922,387.03,663.326,382.213,668.258,376.854z"
		/>
	<path clip-path="url(#SVGID_2_)" fill="#EBBA36" d="M603.43,247.824h-20.043c-10.031,21.237-19.061,42.455-26.844,63.079
		c-7.883,20.883-14.141,39.728-18.602,56.014c-4.492,16.363-7.361,29.731-8.525,39.73c-1.135,9.792-0.041,12.673,0.713,13.519
		c0.24,0.271,0.502,0.393,0.842,0.393c1.75,0,4.994-1.596,10.513-9.199c4.635-6.368,9.331-13.924,13.965-22.454
		c3.771-6.959,7.457-14.041,11.004-21.117c2.877-15.864,7.244-33.64,13.02-52.976C586.01,292.897,594.068,270.368,603.43,247.824z"
		/>
	<path clip-path="url(#SVGID_2_)" fill="#EBBA36" d="M466.961,350.776c0.354,5.519,1.641,10.345,3.834,14.385
		c1.082-6.482,1.572-12.827,1.457-18.901c-0.131-5.604-0.877-10.579-2.217-14.827C467.621,338.376,466.588,344.871,466.961,350.776z
		"/>
</g>
</svg>
