<?xml version="1.0" encoding="utf-8"?>
<!-- Generator: Adobe Illustrator 16.0.0, SVG Export Plug-In . SVG Version: 6.00 Build 0)  -->
<!DOCTYPE svg PUBLIC "-//W3C//DTD SVG 1.1//EN" "http://www.w3.org/Graphics/SVG/1.1/DTD/svg11.dtd">
<svg version="1.1" id="Layer_1" xmlns="http://www.w3.org/2000/svg" xmlns:xlink="http://www.w3.org/1999/xlink" x="0px" y="0px"
	 width="792px" height="612px" viewBox="0 0 792 612" enable-background="new 0 0 792 612" xml:space="preserve">
<path fill="#364B71" d="M675.227,297.66c0,146.752-123.537,265.711-275.92,265.711c-152.405,0-275.938-118.958-275.938-265.711
	s123.534-265.7,275.938-265.7C551.688,31.96,675.227,150.907,675.227,297.66z"/>
<g>
	<path fill="#EBBA36" d="M563.37,399.537c0.104-0.068,0.207-0.12,0.312-0.171c-0.232-0.371-0.352-0.868-0.354-1.526
		c0-0.584,0.049-1.157,0.143-1.705c0.096-0.6,0.305-1.161,0.621-1.656c0.532-0.811,1.162-0.979,1.602-0.979h0.379l0.311,0.311
		c0.315,0.354,0.289,0.837,0.239,1.264c-0.077,0.521-0.208,1.049-0.391,1.598c-0.155,0.534-0.345,1.084-0.556,1.607
		c-0.203,0.519-0.342,0.822-0.467,1.038c0.1,0.054,0.204,0.125,0.307,0.221l0.032-0.056c1.317-2.323,1.96-4.082,1.91-5.228
		c-0.044-1.027-0.499-1.278-1.165-1.339c-0.975-0.094-1.738,0.165-2.428,0.795c-0.763,0.688-1.322,1.53-1.668,2.511
		c-0.342,0.983-0.402,1.949-0.185,2.948c0.105,0.478,0.296,0.876,0.57,1.215C562.807,400.029,563.066,399.74,563.37,399.537"/>
	<path fill="#EBBA36" d="M565.842,401.924c0.266,0.038,0.537,0.063,0.816,0.075c1.219,0.056,2.382-0.064,3.498-0.349
		c1.108-0.285,2.146-0.733,3.079-1.329c0.805-0.51,1.437-1.103,1.881-1.763l0.134-0.211l1.434,0.897
		c-0.053,0.088-0.108,0.173-0.166,0.258c-1.391,2.189-2.473,4.428-3.205,6.636c-0.756,2.263-1.196,4.342-1.309,6.184
		c-0.102,1.762,0.09,3.219,0.568,4.33c0.521,1.225,1.197,1.397,1.66,1.421l0.099,0.006c0.27,0,0.759-0.137,1.56-0.786
		c0.833-0.671,1.701-1.539,2.584-2.58c0.881-1.044,1.784-2.226,2.684-3.515c0.926-1.341,1.747-2.571,2.508-3.759
		c0.727-1.144,1.404-2.24,2.013-3.258c0.479-0.825,0.892-1.545,1.058-1.879c0.106-0.218,0.194-0.424,0.263-0.618
		c-0.065,0.1-0.137,0.211-0.212,0.336c-0.433,0.751-1.154,1.954-2.197,3.663c-1.019,1.675-2.133,3.374-3.312,5.05
		c-1.191,1.702-2.375,3.203-3.518,4.46c-1.282,1.42-2.23,2.053-3.071,2.053c-0.039,0-0.077-0.001-0.115-0.003
		c-0.355-0.012-0.678-0.156-0.907-0.412c-0.431-0.481-0.409-1.181-0.356-1.665c0.086-0.778,0.311-1.736,0.705-3.019
		c0.373-1.171,0.863-2.495,1.459-3.943c0.646-1.564,1.256-2.966,1.865-4.285c0.63-1.37,1.287-2.713,1.953-3.991
		c0.643-1.234,1.201-2.263,1.658-3.059c0.712-1.199,0.961-2.167,0.728-2.808c-0.181-0.491-0.686-0.888-1.505-1.178
		c-0.918-0.226-1.657-0.234-2.18-0.025c-0.578,0.23-1.128,0.614-1.633,1.142c-0.523,0.546-1.031,1.193-1.551,1.982
		c-0.555,0.865-1.188,1.633-1.929,2.338c-0.776,0.745-1.69,1.363-2.718,1.838c-1.079,0.512-2.399,0.712-3.951,0.584l-0.182-0.015
		C566.059,401.091,566.003,401.483,565.842,401.924"/>
	<path fill="#EBBA36" d="M564.309,400.943c-0.088,0.059-0.211,0.184-0.345,0.418c0.079,0.037,0.156,0.08,0.238,0.115
		c0.117-0.281,0.151-0.462,0.155-0.564C564.342,400.921,564.324,400.932,564.309,400.943"/>
	<path fill="#EBBA36" d="M565.188,400.698c0.044,0.292-0.022,0.643-0.187,1.055c0.271,0.072,0.551,0.129,0.84,0.171
		c0.161-0.44,0.217-0.833,0.189-1.197l-0.854-0.07C565.181,400.672,565.186,400.684,565.188,400.698"/>
	<path fill="#EBBA36" d="M563.84,400.239c0.119-0.079,0.23-0.133,0.34-0.174l-0.433-0.587c-0.026-0.034-0.043-0.076-0.065-0.112
		c-0.104,0.051-0.208,0.102-0.312,0.171c-0.304,0.203-0.563,0.492-0.787,0.848c0.174,0.215,0.396,0.398,0.644,0.566
		C563.406,400.635,563.607,400.395,563.84,400.239"/>
	<path fill="#EBBA36" d="M565.123,399.457l-0.393,0.568c0.147,0.052,0.257,0.157,0.336,0.305l0.449-0.792
		c-0.103-0.095-0.207-0.167-0.307-0.221C565.18,399.367,565.151,399.416,565.123,399.457"/>
	<path fill="#EBBA36" d="M563.964,401.361c0.134-0.234,0.257-0.359,0.345-0.418c0.017-0.012,0.033-0.022,0.049-0.031
		c-0.004,0.103-0.038,0.283-0.155,0.564c0.258,0.107,0.522,0.2,0.8,0.276c0.164-0.412,0.23-0.763,0.187-1.055
		c-0.003-0.015-0.008-0.026-0.011-0.042l-0.283-0.024l0.172-0.302c-0.079-0.147-0.188-0.253-0.336-0.305l-0.28,0.407l-0.271-0.367
		c-0.109,0.041-0.221,0.095-0.34,0.174c-0.232,0.155-0.434,0.396-0.613,0.712c0.11,0.073,0.212,0.152,0.338,0.218
		C563.692,401.241,563.83,401.299,563.964,401.361"/>
	<path fill="#EBBA36" d="M586.737,399.484c-0.435,0.28-0.892,0.823-1.405,1.677c-0.435,0.753-1.149,1.944-2.188,3.643
		c-0.998,1.645-2.092,3.312-3.25,4.959c-1.151,1.646-2.289,3.09-3.386,4.295c-0.771,0.854-1.256,1.221-1.528,1.38
		c0.004-0.027,0.006-0.057,0.01-0.087c0.072-0.659,0.282-1.543,0.639-2.698c0.355-1.119,0.83-2.399,1.408-3.804
		c0.637-1.543,1.238-2.923,1.838-4.222c0.619-1.347,1.265-2.665,1.917-3.918c0.632-1.213,1.179-2.222,1.618-2.987
		c1.002-1.688,1.281-3.074,0.856-4.24c-0.365-0.997-1.231-1.74-2.573-2.207l-0.072-0.021c-1.301-0.325-2.385-0.312-3.253,0.035
		c-0.806,0.32-1.556,0.84-2.226,1.542c-0.596,0.619-1.166,1.347-1.748,2.231c-0.488,0.758-1.037,1.424-1.681,2.037
		c-0.642,0.616-1.402,1.13-2.267,1.528c-0.502,0.239-1.091,0.385-1.756,0.438c1.033-2.034,1.51-3.641,1.455-4.884
		c-0.076-1.751-1.035-2.797-2.695-2.948c-1.431-0.142-2.685,0.28-3.721,1.225c-0.972,0.875-1.688,1.952-2.129,3.205
		c-0.441,1.272-0.522,2.573-0.238,3.869c0.219,0.992,0.695,1.807,1.402,2.436c0.134-0.261,0.276-0.517,0.4-0.78
		c-0.49-0.492-0.816-1.103-0.979-1.838c-0.252-1.151-0.179-2.282,0.213-3.408c0.394-1.119,1.025-2.072,1.896-2.854
		c0.866-0.791,1.893-1.127,3.073-1.013c1.229,0.111,1.877,0.826,1.934,2.145c0.058,1.319-0.619,3.211-2.02,5.681
		c1.4,0.115,2.574-0.057,3.526-0.508c0.96-0.443,1.786-1.008,2.489-1.683c0.707-0.674,1.299-1.401,1.806-2.191
		c0.513-0.777,1.056-1.486,1.646-2.102c0.588-0.614,1.231-1.064,1.931-1.343c0.703-0.281,1.609-0.281,2.734,0
		c2.414,0.839,2.835,2.576,1.269,5.217c-0.452,0.783-1.001,1.798-1.642,3.028c-0.645,1.236-1.292,2.555-1.936,3.955
		c-0.649,1.404-1.261,2.821-1.852,4.253c-0.589,1.431-1.066,2.719-1.432,3.87c-0.356,1.153-0.59,2.101-0.675,2.86
		c-0.083,0.759,0.069,1.142,0.468,1.142c0.561,0.055,1.4-0.536,2.519-1.773c1.119-1.231,2.271-2.691,3.451-4.378
		c1.181-1.679,2.276-3.35,3.28-5.004c1.01-1.653,1.742-2.87,2.197-3.66c0.439-0.728,0.82-1.188,1.131-1.388
		c0.308-0.198,0.54-0.198,0.674,0c0.141,0.2,0.18,0.517,0.127,0.964c-0.06,0.454-0.227,0.957-0.502,1.518
		c-0.169,0.343-0.535,0.981-1.09,1.938c-0.57,0.952-1.244,2.048-2.026,3.279c-0.79,1.235-1.636,2.499-2.527,3.787
		c-0.899,1.291-1.808,2.484-2.731,3.577c-0.93,1.099-1.83,1.993-2.695,2.691c-0.869,0.703-1.611,1.024-2.234,0.968
		c-1.064-0.055-1.868-0.695-2.393-1.931c-0.533-1.235-0.747-2.808-0.637-4.716c0.117-1.902,0.562-4.041,1.351-6.398
		c0.781-2.358,1.933-4.716,3.45-7.066c-0.512,0.841-1.264,1.588-2.271,2.228c-1.013,0.646-2.128,1.127-3.327,1.436
		c-1.202,0.306-2.454,0.43-3.74,0.374c-0.396-0.017-0.772-0.064-1.141-0.127c-0.131,0.262-0.264,0.521-0.396,0.777
		c0.482,0.099,0.979,0.173,1.502,0.193c1.366,0.058,2.708-0.074,3.987-0.399c0.847-0.219,1.657-0.519,2.421-0.896
		c-0.504,1.072-0.933,2.145-1.287,3.213c-0.803,2.399-1.271,4.625-1.393,6.617c-0.117,2.029,0.119,3.744,0.703,5.096
		c0.818,1.93,2.152,2.393,3.093,2.441c0.071,0.006,0.146,0.01,0.219,0.01c0.8,0,1.658-0.381,2.622-1.161
		c0.914-0.736,1.859-1.681,2.811-2.805c0.917-1.083,1.853-2.308,2.783-3.642c0.939-1.36,1.771-2.607,2.545-3.813
		c0.736-1.159,1.422-2.269,2.044-3.31c0.618-1.068,0.944-1.639,1.116-1.989c0.32-0.649,0.511-1.232,0.583-1.793
		c0.05-0.425,0.076-1.047-0.267-1.537C588.186,399.158,587.445,399.031,586.737,399.484"/>
	<path fill="#EBBA36" d="M565.43,396.405c0.177-0.53,0.29-1.009,0.354-1.43c0.049-0.421,0.024-0.631-0.09-0.631v0.845h-0.002l0,0
		l0.002-0.845c-0.34,0-0.633,0.198-0.889,0.589c-0.252,0.393-0.421,0.841-0.5,1.344c-0.087,0.508-0.129,1.025-0.129,1.561
		c0,0.536,0.084,0.913,0.251,1.139c0.117-0.17,0.267-0.509,0.466-1.013C565.094,397.461,565.272,396.94,565.43,396.405"/>
	<path fill="#EBBA36" d="M563.2,402.867c0.082,0.04,0.162,0.083,0.245,0.119c0.131-0.247,0.258-0.5,0.385-0.752
		c-0.083-0.035-0.163-0.079-0.244-0.117C563.462,402.369,563.33,402.618,563.2,402.867"/>
	<path fill="#EBBA36" d="M562.841,401.724c-0.251-0.16-0.477-0.339-0.675-0.536c-0.124,0.263-0.267,0.52-0.4,0.78
		c0.209,0.186,0.438,0.355,0.688,0.508C562.584,402.226,562.719,401.978,562.841,401.724"/>
	<path fill="#EBBA36" d="M564.633,402.521c-0.129,0.254-0.256,0.51-0.387,0.759c0.271,0.086,0.552,0.156,0.84,0.214
		c0.133-0.256,0.266-0.516,0.396-0.778C565.19,402.665,564.908,402.601,564.633,402.521"/>
	<path fill="#EBBA36" d="M563.445,402.986c0.26,0.112,0.527,0.208,0.801,0.294c0.131-0.249,0.258-0.505,0.387-0.759
		c-0.275-0.081-0.544-0.176-0.803-0.287C563.703,402.486,563.576,402.739,563.445,402.986"/>
	<path fill="#EBBA36" d="M563.2,402.867c0.13-0.249,0.262-0.498,0.386-0.75c-0.139-0.066-0.281-0.125-0.414-0.199
		c-0.115-0.061-0.226-0.127-0.331-0.194c-0.122,0.254-0.257,0.502-0.387,0.752c0.099,0.061,0.197,0.123,0.303,0.179
		C562.898,402.733,563.053,402.796,563.2,402.867"/>
	<path fill="#EBBA36" d="M562.583,400.385c-0.274-0.339-0.464-0.737-0.57-1.215c-0.218-1-0.157-1.965,0.185-2.948
		c0.346-0.98,0.905-1.823,1.668-2.511c0.689-0.63,1.453-0.889,2.428-0.795c0.667,0.061,1.121,0.312,1.165,1.339
		c0.05,1.146-0.593,2.904-1.91,5.228l-0.032,0.056c0.224,0.208,0.429,0.527,0.508,1.029c0.007,0.051,0.004,0.106,0.008,0.159
		l0.182,0.016c1.552,0.128,2.872-0.072,3.951-0.584c1.027-0.475,1.941-1.093,2.718-1.838c0.741-0.705,1.374-1.473,1.929-2.338
		c0.52-0.789,1.027-1.437,1.551-1.982c0.505-0.527,1.055-0.911,1.633-1.142c0.522-0.209,1.262-0.2,2.18,0.025
		c0.819,0.29,1.324,0.687,1.505,1.178c0.233,0.641-0.016,1.608-0.728,2.808c-0.457,0.796-1.016,1.824-1.658,3.059
		c-0.666,1.278-1.323,2.621-1.953,3.991c-0.609,1.318-1.22,2.721-1.865,4.285c-0.597,1.448-1.086,2.772-1.459,3.943
		c-0.395,1.282-0.619,2.24-0.706,3.019c-0.052,0.484-0.073,1.185,0.357,1.665c0.229,0.256,0.551,0.4,0.907,0.412
		c0.038,0.002,0.076,0.003,0.115,0.003c0.841,0,1.789-0.633,3.071-2.053c1.143-1.257,2.326-2.758,3.518-4.46
		c1.179-1.676,2.293-3.376,3.312-5.05c1.043-1.71,1.765-2.912,2.197-3.663c0.075-0.125,0.146-0.236,0.212-0.336
		c-0.068,0.194-0.156,0.4-0.263,0.618c-0.166,0.334-0.579,1.054-1.058,1.879c-0.608,1.018-1.286,2.114-2.013,3.258
		c-0.761,1.188-1.582,2.418-2.508,3.759c-0.899,1.289-1.803,2.471-2.684,3.515c-0.883,1.041-1.751,1.909-2.584,2.58
		c-0.801,0.649-1.29,0.786-1.56,0.786l-0.099-0.006c-0.463-0.023-1.14-0.196-1.66-1.421c-0.479-1.111-0.67-2.568-0.568-4.33
		c0.112-1.842,0.553-3.921,1.309-6.184c0.732-2.208,1.814-4.447,3.205-6.636c0.058-0.085,0.113-0.17,0.166-0.258l-1.434-0.897
		l-0.134,0.211c-0.444,0.66-1.076,1.253-1.881,1.763c-0.934,0.596-1.971,1.044-3.079,1.329c-1.116,0.284-2.279,0.404-3.498,0.349
		c-0.279-0.012-0.551-0.037-0.816-0.075c-0.062,0.173-0.139,0.353-0.231,0.541c-0.043,0.085-0.087,0.166-0.128,0.251
		c0.368,0.063,0.745,0.111,1.141,0.128c1.286,0.056,2.538-0.068,3.74-0.374c1.199-0.309,2.314-0.79,3.327-1.436
		c1.007-0.64,1.759-1.387,2.271-2.228c-1.518,2.351-2.669,4.708-3.45,7.065c-0.788,2.358-1.233,4.497-1.351,6.399
		c-0.11,1.907,0.104,3.48,0.637,4.716c0.524,1.234,1.328,1.876,2.393,1.931c0.623,0.057,1.365-0.265,2.234-0.968
		c0.865-0.698,1.766-1.593,2.695-2.691c0.924-1.093,1.832-2.286,2.731-3.577c0.892-1.288,1.737-2.552,2.527-3.787
		c0.782-1.231,1.456-2.327,2.026-3.279c0.555-0.957,0.921-1.596,1.09-1.938c0.275-0.561,0.442-1.063,0.502-1.518
		c0.053-0.447,0.014-0.764-0.127-0.964c-0.134-0.198-0.366-0.198-0.674,0c-0.311,0.2-0.691,0.66-1.131,1.388
		c-0.455,0.79-1.188,2.006-2.197,3.66c-1.004,1.654-2.1,3.325-3.28,5.004c-1.18,1.687-2.332,3.146-3.451,4.378
		c-1.118,1.237-1.958,1.828-2.519,1.773c-0.398,0-0.551-0.383-0.468-1.142c0.085-0.76,0.318-1.707,0.675-2.86
		c0.365-1.151,0.843-2.439,1.432-3.87c0.591-1.432,1.202-2.849,1.852-4.253c0.644-1.4,1.291-2.72,1.936-3.955
		c0.641-1.23,1.189-2.245,1.642-3.028c1.566-2.641,1.146-4.378-1.269-5.217c-1.125-0.281-2.031-0.281-2.734,0
		c-0.699,0.278-1.343,0.729-1.931,1.343c-0.591,0.615-1.134,1.324-1.646,2.102c-0.507,0.789-1.099,1.518-1.806,2.191
		c-0.703,0.675-1.529,1.238-2.489,1.683c-0.952,0.451-2.126,0.622-3.526,0.508c1.4-2.47,2.077-4.361,2.02-5.681
		c-0.057-1.318-0.705-2.033-1.934-2.145c-1.181-0.114-2.207,0.222-3.073,1.013c-0.87,0.782-1.502,1.735-1.896,2.854
		c-0.392,1.126-0.465,2.256-0.213,3.408c0.162,0.735,0.488,1.346,0.979,1.838c0.021-0.044,0.047-0.086,0.067-0.13
		C562.336,400.807,562.455,400.588,562.583,400.385"/>
	<path fill="#EBBA36" d="M564.987,399.219c0.065,0.022,0.142,0.057,0.222,0.099c0.125-0.216,0.264-0.52,0.467-1.038
		c0.211-0.523,0.4-1.073,0.556-1.607c0.183-0.549,0.313-1.077,0.391-1.598c0.05-0.427,0.076-0.91-0.238-1.264l-0.312-0.311h-0.379
		c-0.438,0-1.069,0.168-1.602,0.979c-0.316,0.495-0.525,1.057-0.621,1.656c-0.094,0.548-0.142,1.121-0.142,1.705
		c0.001,0.658,0.12,1.155,0.353,1.526C564.135,399.144,564.582,399.088,564.987,399.219 M564.176,397.838
		c0-0.535,0.042-1.053,0.129-1.561c0.079-0.503,0.248-0.951,0.5-1.344c0.256-0.391,0.549-0.589,0.889-0.589
		c0.114,0,0.139,0.21,0.09,0.631c-0.063,0.421-0.177,0.899-0.354,1.43c-0.157,0.536-0.336,1.056-0.537,1.559
		c-0.199,0.504-0.349,0.843-0.466,1.014C564.26,398.751,564.176,398.374,564.176,397.838"/>
	<path fill="#EBBA36" d="M563.781,401.735c-0.061,0.13-0.133,0.253-0.195,0.382c0.081,0.038,0.161,0.082,0.244,0.117
		c0.088-0.173,0.178-0.342,0.264-0.518c0.044-0.089,0.078-0.166,0.108-0.24c-0.082-0.035-0.159-0.078-0.238-0.115
		C563.904,401.465,563.844,401.582,563.781,401.735"/>
	<path fill="#EBBA36" d="M565.842,401.924c-0.287-0.041-0.569-0.099-0.84-0.171c-0.044,0.108-0.092,0.219-0.15,0.337
		c-0.071,0.146-0.146,0.287-0.219,0.432c0.275,0.079,0.558,0.144,0.85,0.194c0.041-0.085,0.085-0.166,0.128-0.251
		C565.703,402.276,565.779,402.097,565.842,401.924"/>
	<path fill="#EBBA36" d="M563,401.415c0.07-0.173,0.146-0.324,0.227-0.464c-0.248-0.168-0.47-0.352-0.644-0.566
		c-0.128,0.203-0.247,0.422-0.35,0.673c-0.021,0.044-0.046,0.086-0.067,0.13c0.198,0.197,0.424,0.376,0.675,0.536
		C562.891,401.619,562.95,401.52,563,401.415"/>
	<path fill="#EBBA36" d="M565.209,399.317c-0.08-0.042-0.156-0.076-0.222-0.099c-0.405-0.131-0.853-0.075-1.306,0.147
		c0.022,0.036,0.039,0.078,0.065,0.112l0.433,0.587c0.199-0.076,0.384-0.096,0.546-0.042c0.001,0,0.003,0.002,0.005,0.002
		l0.393-0.568C565.151,399.416,565.18,399.367,565.209,399.317"/>
	<path fill="#EBBA36" d="M565.178,400.656l0.854,0.07c-0.004-0.053-0.001-0.107-0.008-0.159c-0.079-0.502-0.284-0.821-0.508-1.029
		l-0.449,0.792C565.116,400.421,565.154,400.527,565.178,400.656"/>
	<path fill="#EBBA36" d="M563.586,402.117c0.062-0.129,0.135-0.252,0.195-0.382c0.062-0.153,0.123-0.271,0.183-0.374
		c-0.134-0.062-0.271-0.12-0.399-0.192c-0.126-0.065-0.228-0.145-0.338-0.218c-0.08,0.14-0.156,0.291-0.227,0.464
		c-0.05,0.104-0.109,0.204-0.159,0.309c0.105,0.067,0.216,0.134,0.331,0.194C563.305,401.993,563.447,402.051,563.586,402.117"/>
	<path fill="#EBBA36" d="M565.002,401.753c-0.277-0.075-0.542-0.169-0.8-0.276c-0.03,0.074-0.064,0.151-0.108,0.24
		c-0.086,0.176-0.176,0.345-0.264,0.518c0.259,0.111,0.527,0.206,0.803,0.287c0.072-0.145,0.147-0.285,0.219-0.432
		C564.91,401.972,564.958,401.861,565.002,401.753"/>
	<path fill="#EBBA36" d="M564.18,400.065l0.271,0.367l0.28-0.407c-0.002,0-0.004-0.001-0.005-0.002
		C564.563,399.97,564.379,399.989,564.18,400.065"/>
	<path fill="#EBBA36" d="M564.895,400.633l0.283,0.023c-0.023-0.129-0.062-0.235-0.111-0.326L564.895,400.633z"/>
	<path fill="#EBBA36" d="M378.042,352.811c1.062-8.133,3.577-18.444,7.476-30.65c3.956-12.406,8.747-26.004,14.24-40.414
		c5.472-14.357,11.638-29.336,18.331-44.523c6.661-15.135,13.506-29.832,20.348-43.685c1.26-2.382,2.315-6.272,0.295-11.382
		c-1.381-3.503-3.289-6.49-5.682-8.888c-2.66-2.646-5.668-4.18-8.941-4.558c-0.366-0.043-0.734-0.063-1.094-0.063
		c-2.12,0-6.044,0.787-8.497,6.061c-0.019,0.042-0.038,0.085-0.057,0.129c-8.493,20.05-16.545,40.339-23.931,60.303
		c-7.364,19.919-13.588,38.825-18.5,56.195c-4.937,17.454-8.416,33.138-10.338,46.612c-0.134,0.932-0.257,1.846-0.372,2.747
		c-1.004-5.674-1.836-11.827-2.487-18.388c-0.989-9.978-1.624-20.839-1.886-32.282c-0.271-11.509-0.134-23.433,0.403-35.439
		c0.543-12.136,1.455-24.348,2.707-36.301c1.249-11.985,2.884-23.606,4.855-34.54c0.96-4.572-0.36-7.646-1.65-9.434
		c-1.737-2.389-4.083-4.005-6.995-4.808c-2.711-0.731-5.703-0.635-8.893,0.304c-3.026,0.896-5.803,2.479-8.254,4.702
		c-0.049,0.044-0.097,0.09-0.145,0.137c-3.451,3.457-6.247,9.265-8.543,17.759c-2.11,7.809-4.197,17.13-6.202,27.702
		c-1.94,10.23-4.038,21.522-6.416,34.523c-2.226,12.226-4.914,24.807-7.988,37.39c-3.058,12.478-6.643,24.598-10.658,36.02
		c-3.97,11.284-8.83,21.408-14.443,30.09c-5.486,8.484-12.023,15.292-19.429,20.232c-6.683,4.455-14.476,6.715-23.161,6.715
		c-0.612,0-1.229-0.012-1.879-0.034c-4.579-0.131-8.806-0.638-12.674-1.505l-0.002,0.006c-31.036-6.563-38.309-32.501-37.918-56.549
		c0.457-11.761,2.526-23.21,4.46-31.648c0.585-2.556,1.157-4.832,1.669-6.761c1.111-4.192,1.934-6.722,1.965-6.819
		c0-0.002,0.002-0.008,0.002-0.008s0.046-0.272,0.07-0.654c0.007-0.106,0.011-0.218,0.013-0.336
		c0.018-1.117-1.782-5.058-5.114-1.715c-0.787,0.789-10.697,17.673-14.207,27.859c-0.919,2.668-1.77,5.479-2.512,8.398
		c-1.183,3.652-1.997,7.2-2.517,10.606c-2.835,18.514,2.913,32.794,4.5,36.277c5.106,10.134,12.636,18.575,22.411,25.093
		c10.146,6.763,23.301,10.386,39.062,10.766c0.949,0.031,1.902,0.047,2.833,0.047c10.552,0,20.181-2.025,28.619-6.021
		c9.049-4.285,17.167-10.227,24.13-17.662c6.853-7.325,12.895-16.027,17.957-25.867c4.986-9.697,9.42-20.102,13.181-30.929
		c3.582-10.33,6.739-20.963,9.394-31.633c0.289,6.375,0.715,12.567,1.279,18.554c1.556,16.614,4.03,31.028,7.354,42.844
		c3.408,12.106,7.74,21.489,12.876,27.89c4.403,5.482,9.45,8.263,14.998,8.263c1.855,0,3.762-0.322,5.669-0.957
		c1.887-0.629,3.039-2.533,2.72-4.496c-0.192-1.186-0.886-2.182-1.844-2.784c-0.623-1.588-1.229-4.196-1.379-8.436
		c-0.173-4.809,0.087-9.506,0.776-13.96C378.034,352.873,378.038,352.842,378.042,352.811"/>
	<path fill="#EBBA36" d="M624.711,306.516c-0.223-1.445-0.879-2.36-1.953-2.721c-1.005-0.334-2.174-0.083-3.449,0.758
		c-1.205,0.8-2.209,2.189-2.969,4.095c-3.772,8.088-8.826,15.691-15.02,22.601c-6.201,6.924-12.535,12.623-18.829,16.938
		c-6.265,4.289-12.173,6.819-17.562,7.521c-0.759,0.099-1.495,0.149-2.188,0.149c-3.812,0-6.61-1.459-8.524-4.454
		c5.532-1.156,10.886-3.323,15.927-6.448c5.304-3.294,10.076-7.232,14.186-11.705c4.107-4.47,7.537-9.336,10.191-14.462
		c2.66-5.153,4.332-10.181,4.971-14.942c0.651-4.818,0.134-9.382-1.539-13.564c-1.699-4.24-4.932-7.526-9.596-9.758
		c-5.197-2.601-10.574-3.403-15.971-2.383c-5.365,1.019-10.422,3.5-15.031,7.372c-4.582,3.844-8.627,8.909-12.021,15.055
		c-3.383,6.137-5.838,13.129-7.295,20.787c-0.459,2.455-0.812,4.809-1.069,7.068c-1.495,2.904-3.026,5.805-4.588,8.681
		c-2.874,5.302-5.793,10-8.676,13.966c-3.436,4.729-5.455,5.723-6.544,5.723c-0.213,0-0.375-0.075-0.523-0.244
		c-0.469-0.526-1.148-2.318-0.438-8.409c0.712-6.191,2.494-14.505,5.296-24.712c2.804-10.211,6.694-21.934,11.565-34.839
		c4.862-12.861,10.48-26.06,16.702-39.234h24.658c2.84,0,5.389-0.676,7.575-2.007c2.155-1.311,3.786-2.754,4.841-4.29
		c1.107-1.606,1.51-3.116,1.193-4.488c-0.217-0.938-0.97-2.056-3.32-2.056c-0.252,0-0.521,0.013-0.746,0.035
		c-0.586,0-1.916,0.048-3.848,0.137c-1.903,0.094-4.256,0.138-7.193,0.138c-2.795,0-5.829,0.044-9.021,0.13
		c-2.69,0.08-5.366,0.126-7.973,0.137c-0.002-0.002-0.004-0.002-0.005-0.004c1.129-2.11,2.164-4.068,3.148-5.958
		c1.171-2.256,2.493-4.581,3.946-6.938c1.882-3.403,2.548-6.63,1.979-9.59c-0.577-2.958-1.755-5.2-3.504-6.665
		c-1.797-1.491-4.029-1.953-6.586-1.36c-2.547,0.586-4.807,2.718-6.716,6.341c-4.04,7.732-7.94,15.79-11.61,23.956
		c-1.229,0.021-2.479,0.046-3.764,0.081c-2.693,0.08-5.373,0.127-7.982,0.137c1.145-2.139,2.181-4.096,3.15-5.96
		c1.201-2.311,2.523-4.636,3.943-6.939c1.889-3.405,2.555-6.631,1.982-9.589c-0.572-2.959-1.751-5.201-3.504-6.666
		c-1.793-1.491-4.023-1.953-6.579-1.36c-2.55,0.586-4.812,2.718-6.726,6.341c-4.107,7.868-8.086,16.093-11.829,24.451h-13.743
		c-3.196,0-5.873,0.578-7.957,1.715c-2.07,1.133-3.698,2.43-4.837,3.854c-1.171,1.462-1.817,2.825-1.921,4.053
		c-0.072,0.857,0.078,1.476,0.457,1.887c0.201,0.219,0.566,0.479,1.17,0.479h21.621c-5.816,14-10.83,28.012-14.906,41.665
		c-2.6,8.695-4.74,16.887-6.401,24.487c-2.331,3.3-4.638,5.952-6.894,7.914c-3.049,2.663-6.021,4.368-8.852,5.081
		c1.283-5.143,1.98-10.387,2.067-15.605c0.092-5.579-0.606-10.831-2.075-15.613c-1.48-4.805-3.871-8.934-7.109-12.272
		c-3.273-3.358-7.571-5.532-12.785-6.463c-6.674-1.115-12.984,0.109-18.727,3.633c-5.693,3.489-10.672,8.374-14.799,14.519
		c-4.104,6.108-7.254,13.006-9.363,20.503c-2.101,7.509-2.887,14.744-2.338,21.506c0.556,6.824,2.757,12.859,6.539,17.935
		c3.812,5.127,9.696,8.291,17.498,9.408c1.327,0.164,2.648,0.248,3.926,0.248c3.004,0,5.912-0.461,8.643-1.37
		c3.867-1.287,7.516-3.298,10.845-5.978c3.308-2.662,6.245-5.927,8.73-9.701c2.391-3.626,4.425-7.616,6.05-11.867
		c4.697-0.461,9.576-2.556,14.51-6.23c0.483-0.361,0.963-0.749,1.441-1.152c-1.537,10.372-1.791,18.958-0.745,25.53
		c1.149,7.163,4.31,10.794,9.393,10.794c2.167,0,4.571-1.207,7.142-3.588c2.49-2.309,5-5.281,7.461-8.838
		c2.166-3.132,4.35-6.552,6.506-10.16c-0.152,4.449,0.039,8.392,0.58,11.792c1.15,7.163,4.312,10.794,9.4,10.794
		c2.159,0,4.561-1.207,7.137-3.588c2.49-2.308,4.998-5.281,7.453-8.838c2.184-3.146,4.38-6.584,6.546-10.211
		c0.21,1.455,0.49,2.837,0.841,4.141c1.849,6.852,5.059,11.888,9.539,14.97c3.447,2.372,7.551,3.575,12.195,3.575
		c1.396,0,2.865-0.109,4.369-0.322c6.422-0.926,13.205-3.573,20.164-7.869c6.92-4.277,13.941-10.421,20.873-18.259
		c6.92-7.836,13.189-17.427,18.634-28.502C624.523,309.487,624.914,307.838,624.711,306.516 M571.467,329.607
		c-3.067,3.333-6.428,6.33-9.988,8.906c-3.293,2.386-6.528,3.983-9.632,4.759c-0.374-5.103,0.559-12.098,2.776-20.812
		c2.857-11.265,7.014-19.55,12.353-24.625c3.995-3.795,7.651-5.719,10.865-5.719c0.986,0,1.954,0.182,2.835,0.524
		c2.545,1.189,4.027,3.039,4.531,5.652c0.522,2.696,0.253,5.795-0.801,9.215c-1.066,3.471-2.744,7.232-4.987,11.178
		C577.17,322.639,574.495,326.312,571.467,329.607 M486.076,356.791c-0.211,0-0.373-0.075-0.523-0.244
		c-0.469-0.526-1.149-2.318-0.443-8.408c0.725-6.22,2.509-14.534,5.303-24.713c2.773-10.129,6.668-21.851,11.57-34.84
		c4.84-12.827,10.457-26.024,16.695-39.233h12.467c-5.822,14.022-10.834,28.035-14.902,41.665
		c-3.592,12.026-6.308,23.083-8.098,32.95c-2.206,4.401-4.498,8.806-6.844,13.135c-2.882,5.306-5.803,10.005-8.686,13.966
		C489.182,355.798,487.164,356.791,486.076,356.791 M449.555,310.578c0.07,3.777-0.233,7.725-0.907,11.757
		c-1.364-2.513-2.164-5.515-2.385-8.947c-0.231-3.674,0.411-7.713,1.912-12.032C449.01,303.998,449.473,307.092,449.555,310.578
		 M435.535,317.562c1.976,7.205,5.504,12.647,10.492,16.184c-1.051,3.4-2.408,6.686-4.033,9.77c-1.698,3.214-3.549,5.97-5.5,8.19
		c-1.922,2.183-4.048,3.822-6.318,4.874c-2.227,1.029-4.645,1.287-7.222,0.767c-3.437-0.682-5.817-2.691-7.278-6.146
		c-1.51-3.543-2.317-7.769-2.402-12.561c-0.092-4.814,0.544-9.984,1.889-15.364c1.347-5.386,3.252-10.426,5.666-14.98
		c2.412-4.555,5.211-8.349,8.321-11.279c2.665-2.518,5.526-3.941,8.521-4.249C434.229,301.898,433.512,310.24,435.535,317.562"/>
	<path fill="#EBBA36" d="M220.446,342.741c1.895,3.081,4.322,5.332,7.205,6.687c2.519,1.195,5.188,1.801,7.932,1.801
		c0.319,0,0.64-0.008,0.958-0.023c3.012-0.149,5.954-0.971,8.748-2.442c1.507-0.795,2.887-1.745,4.13-2.844
		c0.585,1.263,1.308,2.272,2.178,3.051c1.672,1.484,3.796,2.237,6.312,2.237c2.114,0,4.337-1.031,6.793-3.148
		c2.097-1.802,4.267-4.152,6.444-6.984c2.106-2.724,4.216-5.794,6.27-9.125c2.145-3.481,3.986-6.556,5.626-9.393
		c1.867-3.211,3.343-5.854,4.512-8.072c1.259-2.379,2.075-3.941,2.494-4.771c0.812-1.476,1.315-2.967,1.499-4.447
		c0.206-1.78-0.031-3.12-0.724-4.092c-1.033-1.457-2.993-1.771-4.791-0.61c-1.099,0.701-2.219,2.089-3.521,4.362
		c-0.86,1.288-1.906,3.099-3.194,5.532c-1.173,2.226-2.553,4.712-4.216,7.605c-1.565,2.724-3.257,5.525-5.027,8.321
		c-1.837,2.891-3.514,5.406-5.127,7.69c-1.565,2.22-3.019,4.003-4.314,5.3c-0.574,0.572-0.967,0.838-1.188,0.958
		c-0.032-0.196-0.06-0.482-0.06-0.882c0-1.805,0.36-4.124,1.07-6.894c0.758-2.956,1.783-6.199,3.051-9.646
		c1.27-3.484,2.59-6.994,3.925-10.436c1.282-3.314,2.589-6.41,3.884-9.2c1.36-2.928,2.333-4.979,2.998-6.314
		c1.474-3.112,1.876-6.077,1.195-8.82c-0.685-2.722-1.902-4.784-3.614-6.128c-1.902-1.499-4.159-1.932-6.549-1.232
		c-2.266,0.664-4.028,2.589-5.245,5.724c-0.563-0.876-1.21-1.665-1.941-2.363c-2.23-2.156-4.994-3.42-8.216-3.756
		c-3.041-0.314-6.296,0.188-9.683,1.493c-3.308,1.28-6.498,3.362-9.479,6.188c-2.915,2.769-5.609,6.38-8.01,10.731
		c-2.387,4.344-4.112,9.472-5.121,15.2c-1.288,6.607-1.606,12.346-0.95,17.052C217.357,335.83,218.616,339.763,220.446,342.741
		 M232.76,316.428c1.832-7.752,4.235-13.31,7.148-16.525c2.721-3.018,5.201-4.576,7.37-4.632l0.15-0.001
		c1.214,0,3.021,0.307,4.684,2.96c1.394,2.237,1.749,5.353,1.054,9.259c-1.28,4.564-2.298,8.505-3.111,12.038
		c-0.832,3.588-1.401,6.914-1.694,9.892c-0.618,2.505-1.686,4.738-3.178,6.645c-1.537,1.974-3.2,3.492-4.94,4.512
		c-1.572,0.917-3.088,1.302-4.506,1.15c-0.765-0.083-1.913-0.406-3.056-2.244c-1.029-1.653-1.646-4.321-1.836-7.929
		C230.651,327.758,231.295,322.669,232.76,316.428"/>
	<path fill="#EBBA36" d="M563.445,402.986c-0.083-0.036-0.163-0.079-0.245-0.119c-0.147-0.071-0.302-0.134-0.443-0.213
		c-0.105-0.056-0.204-0.118-0.303-0.179c-0.251-0.152-0.479-0.322-0.688-0.508c-1.074,2.088-2.427,4.078-4.064,5.912
		c-1.876,2.096-3.795,3.819-5.701,5.125c-1.838,1.265-3.568,2.011-5.146,2.216c-0.207,0.027-0.406,0.042-0.594,0.042l0,0
		c-0.567,0-1.034-0.124-1.418-0.38c1.385-0.398,2.74-1.003,4.047-1.808c1.702-1.062,3.219-2.313,4.508-3.721
		c1.301-1.416,2.393-2.965,3.248-4.606c0.847-1.648,1.385-3.269,1.602-4.825c0.205-1.604,0.03-3.12-0.52-4.508
		c-0.592-1.457-1.696-2.582-3.27-3.336c-1.723-0.867-3.508-1.138-5.335-0.796c-1.763,0.339-3.42,1.15-4.927,2.413
		c-1.471,1.229-2.77,2.854-3.863,4.83c-0.871,1.581-1.539,3.35-2.012,5.258c-0.109,0.086-0.219,0.165-0.329,0.23
		c-0.61,0.364-1.071,0.45-1.403,0.257c-0.352-0.21-0.58-0.84-0.645-1.773c-0.073-1.129,0.287-2.691,1.065-4.626
		c0.522-1.226,0.638-2.402,0.338-3.503c-0.296-1.064-0.808-1.881-1.53-2.429c-0.77-0.575-1.646-0.742-2.598-0.468
		c-0.945,0.282-1.67,1.125-2.162,2.528c-0.915,2.848-1.244,5.387-0.979,7.549c-0.481,2.279-1.173,4.394-2.056,6.286
		c-0.899,1.928-1.893,3.549-2.952,4.82c-1.052,1.26-2.124,2.217-3.185,2.844c-0.943,0.551-1.739,0.747-2.346,0.588
		c-0.59-0.158-1.015-0.554-1.299-1.207c-0.337-0.766-0.495-1.723-0.473-2.842c0.029-1.19,0.204-2.477,0.521-3.822
		c0.319-1.365,0.771-2.686,1.338-3.924c0.558-1.215,1.218-2.34,1.961-3.337c0.71-0.933,1.44-1.604,2.202-2.009
		c0.853-0.498,1.43-1.21,1.718-2.113c0.263-0.815,0.345-1.631,0.246-2.424c-0.099-0.811-0.36-1.521-0.773-2.102
		c-0.54-0.78-1.21-0.943-1.678-0.943c-0.151,0-0.306,0.018-0.448,0.049c-1.795,0.37-3.404,1.319-4.789,2.824
		c-1.329,1.454-2.44,3.174-3.303,5.107c-0.676,1.503-1.197,3.14-1.568,4.873c-0.109,0.202-0.223,0.41-0.34,0.627
		c-0.913,1.685-1.883,3.354-2.886,4.965c-1.015,1.65-2.022,3.092-2.999,4.284c-0.732,0.896-1.189,1.245-1.426,1.382
		c-0.011-0.178-0.004-0.464,0.055-0.903c0.159-1.228,0.52-2.723,1.104-4.567c0.591-1.852,1.305-3.859,2.124-5.963
		c0.827-2.115,1.695-4.09,2.591-5.888c0.459-0.985,0.639-1.933,0.533-2.81c-0.101-0.896-0.453-1.688-1.043-2.354
		c-0.57-0.648-1.316-1.128-2.218-1.424c-0.854-0.287-1.821-0.4-2.888-0.335l-0.144,0.009l-0.134,0.056
		c-1.813,0.762-3.52,1.844-5.072,3.218c-0.17,0.15-0.338,0.301-0.504,0.452c-0.052-0.203-0.129-0.417-0.23-0.641
		c-0.34-0.73-0.78-1.36-1.343-1.921c-0.606-0.613-1.294-1.016-2.048-1.196c-0.93-0.216-1.809,0.172-2.514,1.121l-0.096,0.161
		c-1.359,3.062-2.49,6.143-3.365,9.157c-0.189,0.659-0.361,1.301-0.525,1.936c-0.91,1.511-1.957,2.954-3.156,4.295
		c-1.889,2.105-3.807,3.828-5.707,5.125c-1.835,1.266-3.564,2.011-5.142,2.216c-0.208,0.027-0.409,0.042-0.597,0.042
		c-0.567,0-1.035-0.124-1.42-0.381c1.388-0.397,2.745-1.002,4.051-1.807c1.691-1.057,3.208-2.308,4.51-3.722
		c1.294-1.419,2.385-2.966,3.244-4.604c0.849-1.645,1.387-3.267,1.599-4.825c0.208-1.607,0.032-3.124-0.521-4.505
		c-0.583-1.46-1.685-2.586-3.259-3.341c-1.719-0.865-3.514-1.139-5.344-0.796c-1.763,0.341-3.421,1.152-4.924,2.414
		c-1.48,1.239-2.779,2.864-3.859,4.829c-1.019,1.848-1.764,3.949-2.236,6.243c-0.016,0.028-0.027,0.054-0.043,0.082
		c-1.007,1.902-1.885,3.481-2.762,4.975c-0.957,1.648-1.902,3.092-2.811,4.296c-0.621,0.834-1.021,1.157-1.229,1.282
		c-0.048-0.318-0.065-1.051,0.217-2.641c0.412-2.301,1.211-5.123,2.441-8.626c1.249-3.489,2.812-7.244,4.646-11.16
		c1.839-3.928,3.929-7.671,6.213-11.124l0.565-0.855l-0.948-0.393c-0.816-0.336-1.704-0.44-2.632-0.31
		c-0.876,0.127-1.756,0.409-2.615,0.84c-0.865,0.433-1.639,0.993-2.365,1.715c-0.715,0.712-1.293,1.51-1.73,2.396
		c-0.697,1.527-1.413,3.154-2.322,5.278c-0.479,1.118-0.922,2.222-1.327,3.301c-0.582-0.913-1.388-1.591-2.411-2.024
		c-1.639-0.698-3.469-0.691-5.417,0.025c-1.882,0.704-3.717,2.138-5.451,4.26c-1.729,2.115-2.989,5.038-3.747,8.688
		c-0.885,4.177-0.904,7.345-0.057,9.686c0.873,2.376,2.172,3.967,3.859,4.728c0.898,0.408,1.853,0.615,2.836,0.615
		c0.846,0,1.727-0.153,2.622-0.457c1.351-0.462,2.536-1.18,3.545-2.141c0.175,0.5,0.403,0.937,0.686,1.303
		c0.642,0.834,1.562,1.256,2.736,1.256c0.842,0,1.715-0.413,2.677-1.268c0.833-0.754,1.663-1.706,2.467-2.828
		c0.669-0.929,1.328-1.919,2.002-2.996c0.059,0.315,0.124,0.62,0.203,0.912c0.606,2.265,1.683,3.941,3.195,4.979
		c1.166,0.809,2.552,1.219,4.119,1.219c0.461,0,0.947-0.036,1.443-0.107c2.068-0.294,4.246-1.142,6.473-2.518
		c2.084-1.294,4.182-3.106,6.238-5.379c-0.121,1.725-0.074,3.237,0.143,4.514c0.346,1.964,1.168,3.15,2.444,3.526l1.085,0.321
		v-1.131c0-0.759,0.054-1.603,0.156-2.481c0.129-0.861,0.299-1.795,0.502-2.78c0.215-1.053,0.545-2.221,0.981-3.47
		c0.966-2.747,2.15-5.012,3.523-6.73c1.354-1.704,2.641-2.945,3.819-3.686c1.08-0.671,1.738-0.812,2.098-0.812
		c0.102,0,0.193,0.011,0.283,0.034c0.094,0.024,0.123,0.049,0.124,0.049l0,0c0.003,0.005,0.088,0.19-0.085,0.744
		c-1.155,3.303-1.91,6.06-2.308,8.429c-0.402,2.389-0.548,4.424-0.432,6.048c0.122,1.726,0.535,3.057,1.231,3.96
		c0.754,0.963,1.728,1.451,2.895,1.451c0.84,0,1.723-0.41,2.699-1.256c0.863-0.747,1.738-1.695,2.598-2.815
		c0.861-1.114,1.689-2.306,2.529-3.64c0.045-0.072,0.089-0.146,0.135-0.218c0.002,0.015,0.002,0.03,0.004,0.045
		c0.262,1.964,0.886,3.696,1.854,5.15c1.037,1.559,2.51,2.476,4.354,2.722c0.349,0.058,0.718,0.086,1.093,0.086
		c0.893,0,1.874-0.163,2.92-0.487c1.441-0.457,2.885-1.222,4.295-2.274c1.413-1.061,2.721-2.411,4-4.132
		c1.081-1.46,2.033-3.202,2.836-5.189c1.064,0.465,2.227,0.564,3.451,0.31c-0.184,2.131-0.078,3.984,0.333,5.522
		c0.616,2.264,1.691,3.939,3.196,4.976c1.166,0.809,2.551,1.22,4.119,1.22c0.463,0,0.949-0.036,1.444-0.107
		c2.063-0.293,4.241-1.141,6.472-2.517c2.182-1.349,4.398-3.285,6.588-5.756c1.956-2.212,3.743-4.871,5.324-7.908
		c-0.288-0.058-0.568-0.128-0.84-0.214C563.973,403.195,563.705,403.099,563.445,402.986 M552.576,398.257
		c0.141,0.725,0.066,1.553-0.23,2.53c-0.313,1.026-0.814,2.146-1.485,3.325c-0.672,1.179-1.469,2.273-2.366,3.252
		c-0.918,0.994-1.925,1.893-2.995,2.668c-0.675,0.49-1.339,0.864-1.986,1.118c0.017-1.402,0.306-3.214,0.863-5.405
		c0.851-3.354,2.074-5.81,3.635-7.293c1.111-1.056,2.092-1.591,2.915-1.591c0.229,0,0.445,0.04,0.605,0.101
		C552.127,397.242,552.459,397.652,552.576,398.257 M481.544,398.254c0.141,0.728,0.062,1.579-0.233,2.532
		c-0.318,1.033-0.817,2.152-1.48,3.325c-0.677,1.184-1.476,2.278-2.373,3.253c-0.917,0.995-1.922,1.894-2.977,2.665
		c-0.697,0.498-1.359,0.87-2.002,1.122c0.019-1.415,0.309-3.228,0.865-5.406c0.852-3.355,2.074-5.81,3.638-7.295
		c1.106-1.054,2.086-1.589,2.913-1.589c0.228,0,0.443,0.04,0.604,0.101C481.092,397.24,481.424,397.652,481.544,398.254
		 M457.575,402.191c-0.459,1.584-0.846,3.088-1.147,4.466c-0.312,1.389-0.529,2.722-0.645,3.963
		c-0.256,1.028-0.695,1.948-1.309,2.736c-0.621,0.798-1.314,1.418-2.062,1.842c-0.656,0.375-1.299,0.564-1.91,0.564l-0.129-0.003
		c-0.332-0.01-0.828-0.106-1.291-0.826c-0.417-0.657-0.664-1.748-0.713-3.152c-0.053-1.486,0.252-3.516,0.906-6.026
		c0.857-3.227,1.896-5.529,3.084-6.845c1.129-1.245,2.143-1.889,3.013-1.912h0.052c0.49,0,1.213,0.133,1.842,1.289
		C457.809,399.279,457.908,400.613,457.575,402.191"/>
</g>
</svg>
