<?xml version="1.0" standalone="no"?>
<!DOCTYPE svg PUBLIC "-//W3C//DTD SVG 20010904//EN"
 "http://www.w3.org/TR/2001/REC-SVG-20010904/DTD/svg10.dtd">
<svg version="1.0" xmlns="http://www.w3.org/2000/svg"
 width="3300.000000pt" height="3300.000000pt" viewBox="0 0 3300.000000 3300.000000"
 preserveAspectRatio="xMidYMid meet">
<metadata>
Created by potrace 1.11, written by Peter Selinger 2001-2013
</metadata>
<g transform="translate(0.000000,3300.000000) scale(0.100000,-0.100000)"
fill="#000000" stroke="none">
<path d="M16388 27916 c-1 -2 -82 -6 -178 -10 -96 -4 -193 -9 -215 -11 -22 -2
-78 -7 -125 -10 -84 -5 -124 -8 -250 -20 -67 -6 -119 -12 -180 -20 -19 -2 -64
-7 -100 -10 -36 -3 -72 -8 -80 -10 -8 -2 -40 -7 -70 -10 -30 -3 -67 -8 -81
-10 -14 -3 -43 -7 -64 -10 -53 -6 -107 -15 -135 -20 -14 -3 -45 -8 -70 -11
-25 -3 -52 -7 -60 -9 -8 -2 -31 -7 -50 -10 -19 -3 -48 -8 -65 -11 -24 -4 -166
-32 -310 -60 -245 -48 -745 -173 -950 -237 -5 -2 -30 -9 -55 -16 -203 -56
-837 -279 -1010 -354 -19 -8 -98 -41 -175 -73 -77 -31 -178 -75 -225 -96 -47
-22 -121 -56 -165 -76 -177 -81 -732 -366 -787 -404 -14 -10 -29 -18 -32 -18
-31 0 -814 -499 -1036 -661 -30 -22 -75 -54 -100 -71 -24 -18 -51 -38 -60 -44
-8 -7 -87 -68 -175 -135 -199 -152 -471 -380 -675 -563 -268 -241 -813 -797
-975 -995 -20 -24 -140 -166 -179 -211 -11 -14 -55 -68 -96 -120 -41 -52 -77
-97 -80 -100 -3 -3 -32 -41 -65 -85 -33 -44 -65 -86 -72 -93 -7 -7 -20 -26
-30 -42 -9 -17 -21 -30 -25 -30 -4 0 -8 -6 -8 -14 0 -8 -4 -16 -8 -18 -4 -1
-30 -34 -57 -73 -27 -38 -52 -72 -55 -75 -9 -7 -329 -492 -383 -580 -234 -382
-496 -876 -659 -1245 -22 -49 -51 -114 -64 -144 -14 -30 -52 -120 -84 -200
-210 -523 -356 -971 -482 -1476 -16 -66 -31 -124 -32 -130 -2 -5 -6 -28 -10
-50 -4 -22 -12 -53 -16 -70 -5 -16 -11 -43 -14 -60 -2 -16 -20 -106 -39 -200
-20 -93 -38 -190 -42 -215 -3 -25 -8 -52 -10 -60 -3 -8 -7 -33 -10 -55 -2 -22
-7 -51 -9 -65 -3 -14 -8 -45 -11 -70 -6 -46 -8 -60 -20 -140 -15 -104 -23
-164 -30 -245 -3 -33 -8 -71 -10 -85 -2 -14 -7 -56 -10 -95 -3 -38 -7 -86 -9
-105 -3 -19 -8 -78 -11 -130 -3 -52 -8 -117 -10 -145 -10 -115 -18 -407 -18
-650 0 -365 13 -667 39 -940 3 -33 7 -80 9 -105 1 -25 6 -70 9 -100 8 -61 12
-100 21 -179 4 -30 8 -61 10 -70 1 -9 6 -45 10 -81 4 -36 9 -68 11 -71 2 -3 5
-28 8 -55 5 -42 32 -208 51 -309 3 -16 14 -79 26 -140 23 -125 52 -263 81
-380 11 -44 22 -89 24 -100 17 -75 23 -102 28 -120 103 -396 249 -856 366
-1155 33 -85 63 -162 65 -170 4 -15 113 -275 140 -334 7 -17 27 -60 43 -96
270 -608 668 -1302 1060 -1850 100 -139 284 -384 360 -479 46 -57 175 -214
182 -221 3 -3 27 -32 55 -65 211 -254 630 -693 891 -935 74 -69 225 -204 284
-256 25 -21 47 -41 50 -45 8 -8 288 -239 355 -293 33 -26 68 -54 77 -61 10 -8
79 -61 155 -117 76 -57 140 -105 143 -108 3 -3 52 -39 110 -79 448 -316 888
-586 1350 -829 154 -81 404 -203 545 -266 33 -15 78 -36 100 -46 154 -72 451
-193 725 -295 169 -63 572 -200 619 -210 9 -2 70 -20 136 -40 104 -31 432
-121 475 -130 8 -2 96 -22 195 -45 99 -23 194 -44 210 -47 17 -2 46 -8 65 -13
19 -5 53 -12 75 -15 22 -4 56 -10 75 -15 19 -5 58 -12 85 -16 28 -3 53 -8 56
-10 4 -2 24 -6 45 -9 22 -4 46 -8 54 -10 8 -2 38 -7 65 -11 28 -3 59 -8 70
-10 11 -3 36 -7 55 -9 19 -3 64 -10 100 -15 36 -5 85 -12 110 -15 25 -4 56 -8
70 -10 14 -2 48 -6 75 -10 28 -3 66 -8 85 -10 19 -2 60 -7 90 -10 30 -2 71 -7
90 -9 19 -2 71 -7 115 -11 44 -3 96 -8 115 -10 19 -2 80 -7 135 -10 55 -4 120
-8 145 -10 408 -30 1364 -19 1690 20 19 2 71 7 115 10 44 3 91 8 105 10 14 2
55 6 92 10 37 3 75 7 85 9 10 2 49 7 86 11 37 3 78 8 90 11 12 2 45 6 72 9 28
3 75 10 105 15 30 5 72 11 93 14 124 19 121 18 272 46 168 31 162 30 245 46
41 9 89 17 105 20 17 3 37 7 45 10 8 3 58 14 110 25 123 26 115 24 190 44 36
9 76 19 90 21 14 3 43 10 65 16 22 6 45 12 50 14 27 6 144 36 170 44 17 5 53
16 81 25 28 9 59 17 70 20 144 32 926 299 1069 364 11 5 47 21 80 34 786 325
1471 691 2130 1137 756 513 1374 1046 2029 1750 43 46 192 214 211 238 5 7 17
21 26 30 71 75 326 394 472 589 200 268 468 665 600 888 7 10 21 35 33 55 51
86 164 283 164 286 0 2 14 27 31 56 27 45 77 141 225 428 15 30 29 57 29 60 1
3 27 58 58 123 31 65 57 120 57 123 0 2 11 27 24 56 79 173 257 606 271 658 3
8 21 60 41 115 57 159 181 537 190 580 1 6 16 58 33 117 25 85 88 321 106 398
31 132 106 489 120 570 3 19 8 42 10 50 2 8 6 33 10 55 3 22 12 83 21 135 20
124 21 130 40 275 3 22 7 51 9 65 5 26 13 97 20 165 2 22 7 65 10 95 8 61 10
88 20 217 4 48 8 104 10 123 22 244 33 894 20 1165 -9 205 -20 382 -30 495 -2
30 -7 87 -11 125 -3 39 -7 81 -9 95 -2 14 -7 50 -10 80 -9 87 -16 153 -20 180
-2 14 -7 50 -10 80 -4 30 -9 62 -10 70 -1 8 -5 33 -9 55 -19 127 -48 305 -56
340 -5 22 -11 56 -14 75 -3 19 -8 46 -11 60 -3 14 -9 48 -14 75 -6 28 -22 102
-36 165 -15 63 -28 126 -31 140 -4 20 -31 131 -80 320 -93 366 -328 1063 -454
1345 -5 11 -39 90 -76 175 -327 759 -764 1510 -1268 2183 -127 169 -266 349
-280 362 -6 6 -27 30 -46 55 -19 25 -37 47 -40 50 -3 3 -58 66 -122 141 -64
75 -129 150 -144 165 -14 16 -63 70 -108 119 -198 219 -628 637 -886 862 -159
138 -170 147 -370 307 -419 335 -812 609 -1271 886 -73 44 -133 80 -135 80 -1
0 -36 20 -77 44 -236 139 -677 364 -993 506 -217 98 -208 94 -309 134 -49 20
-99 41 -110 45 -72 32 -109 46 -270 106 -305 114 -927 315 -1050 339 -11 2
-69 18 -130 34 -97 26 -308 78 -358 88 -10 2 -26 5 -35 8 -9 3 -28 7 -42 10
-14 3 -106 21 -205 41 -99 20 -218 43 -265 51 -47 8 -96 17 -110 19 -23 5 -85
14 -195 30 -22 3 -52 8 -67 11 -32 6 -76 12 -141 19 -26 3 -58 7 -70 9 -21 5
-112 16 -172 21 -41 4 -153 15 -195 20 -19 2 -69 7 -110 10 -41 4 -91 8 -110
10 -19 2 -89 7 -155 10 -66 4 -140 9 -165 11 -55 5 -987 14 -992 10z"/>
</g>
</svg>
